<?xml version="1.0" encoding="UTF-8"?>
<!DOCTYPE svg PUBLIC "-//W3C//DTD SVG 1.1//EN" "http://www.w3.org/Graphics/SVG/1.1/DTD/svg11.dtd">
<svg xmlns="http://www.w3.org/2000/svg" version="1.1" width="456px" height="456px" style="shape-rendering:geometricPrecision; text-rendering:geometricPrecision; image-rendering:optimizeQuality; fill-rule:evenodd; clip-rule:evenodd" xmlns:xlink="http://www.w3.org/1999/xlink">
<g><path style="opacity:1" fill="#febc3e" d="M -0.5,-0.5 C 71.1667,-0.5 142.833,-0.5 214.5,-0.5C 142.889,5.71855 85.3894,37.3852 42,94.5C 17.6756,129.136 3.50897,167.469 -0.5,209.5C -0.5,139.5 -0.5,69.5 -0.5,-0.5 Z"/></g>
<g><path style="opacity:1" fill="#020100" d="M 214.5,-0.5 C 222.833,-0.5 231.167,-0.5 239.5,-0.5C 329.269,7.94764 394.436,52.281 435,132.5C 446.969,159.042 453.802,186.709 455.5,215.5C 455.5,223.167 455.5,230.833 455.5,238.5C 449.834,311.011 418.167,369.177 360.5,413C 325.203,437.377 286.203,451.543 243.5,455.5C 231.833,455.5 220.167,455.5 208.5,455.5C 119.605,444.424 56.1054,398.424 18,317.5C 8.35442,293.584 2.18775,268.918 -0.5,243.5C -0.5,232.167 -0.5,220.833 -0.5,209.5C 3.50897,167.469 17.6756,129.136 42,94.5C 85.3894,37.3852 142.889,5.71855 214.5,-0.5 Z"/></g>
<g><path style="opacity:1" fill="#fdbc3e" d="M 239.5,-0.5 C 311.5,-0.5 383.5,-0.5 455.5,-0.5C 455.5,71.5 455.5,143.5 455.5,215.5C 453.802,186.709 446.969,159.042 435,132.5C 394.436,52.281 329.269,7.94764 239.5,-0.5 Z"/></g>
<g><path style="opacity:1" fill="#febc3f" d="M 207.5,29.5 C 289.016,25.5072 352.183,57.1739 397,124.5C 431.298,185.154 434.631,247.487 407,311.5C 368.642,385.623 307.475,423.623 223.5,425.5C 153.465,421.912 98.9652,391.245 60,333.5C 25.8424,275.743 20.5091,215.41 44,152.5C 76.0984,81.8536 130.598,40.8536 207.5,29.5 Z"/></g>
<g><path style="opacity:1" fill="#fffefd" d="M 135.5,60.5 C 146.961,65.7291 157.961,71.7291 168.5,78.5C 151.948,118.012 136.115,157.679 121,197.5C 144.637,161.697 168.471,126.031 192.5,90.5C 203.526,96.0089 214.192,102.009 224.5,108.5C 187.312,161.557 149.645,214.223 111.5,266.5C 95.847,258.675 80.5136,250.342 65.5,241.5C 89.2357,181.288 112.569,120.955 135.5,60.5 Z"/></g>
<g><path style="opacity:1" fill="#fffefd" d="M 241.5,126.5 C 265.266,125.469 284.1,134.469 298,153.5C 303.206,164.185 303.873,175.185 300,186.5C 296.881,194.739 293.214,202.739 289,210.5C 275.667,235.167 262.333,259.833 249,284.5C 230.237,315.921 205.404,321.754 174.5,302C 158.636,289.413 153.47,273.246 159,253.5C 162.453,244.594 166.453,235.927 171,227.5C 184.667,202.167 198.333,176.833 212,151.5C 218.694,139.294 228.527,130.961 241.5,126.5 Z"/></g>
<g><path style="opacity:1" fill="#ffbd40" d="M 250.5,164.5 C 259.656,162.832 263.823,166.499 263,175.5C 246.667,206.167 230.333,236.833 214,267.5C 211.872,270.63 209.372,273.463 206.5,276C 196.841,276.651 193.341,272.151 196,262.5C 211.667,233.167 227.333,203.833 243,174.5C 244.947,170.724 247.447,167.39 250.5,164.5 Z"/></g>
<g><path style="opacity:1" fill="#fffefd" d="M 338.5,178.5 C 362.654,177.475 381.488,186.808 395,206.5C 398.657,219.679 397.99,232.679 393,245.5C 390.168,253.169 386.668,260.502 382.5,267.5C 371.34,261.754 360.34,255.754 349.5,249.5C 352.921,243.658 356.088,237.658 359,231.5C 362.535,219.035 358.035,214.535 345.5,218C 342.048,221.734 339.215,225.9 337,230.5C 322.079,258.008 307.412,285.675 293,313.5C 289.314,322.128 291.981,327.461 301,329.5C 305.834,328.006 309.501,325.006 312,320.5C 316.833,311.5 321.667,302.5 326.5,293.5C 323.658,291.575 320.991,289.408 318.5,287C 323.278,277.276 328.445,267.776 334,258.5C 347.941,265.549 361.441,273.216 374.5,281.5C 357.342,314.486 339.675,347.152 321.5,379.5C 317.091,377.547 312.924,375.213 309,372.5C 309.198,366.845 309.198,361.179 309,355.5C 290.258,364.485 273.925,361.152 260,345.5C 253.894,336.408 251.561,326.408 253,315.5C 254.867,307.232 257.534,299.232 261,291.5C 276.412,262.341 292.079,233.341 308,204.5C 315.022,191.966 325.189,183.299 338.5,178.5 Z"/></g>
<g><path style="opacity:1" fill="#febc3e" d="M -0.5,243.5 C 2.18775,268.918 8.35442,293.584 18,317.5C 56.1054,398.424 119.605,444.424 208.5,455.5C 138.833,455.5 69.1667,455.5 -0.5,455.5C -0.5,384.833 -0.5,314.167 -0.5,243.5 Z"/></g>
<g><path style="opacity:1" fill="#febc3e" d="M 455.5,238.5 C 455.5,310.833 455.5,383.167 455.5,455.5C 384.833,455.5 314.167,455.5 243.5,455.5C 286.203,451.543 325.203,437.377 360.5,413C 418.167,369.177 449.834,311.011 455.5,238.5 Z"/></g>
</svg>
