<?xml version="1.0" encoding="UTF-8"?>
<!DOCTYPE svg PUBLIC "-//W3C//DTD SVG 1.1//EN" "http://www.w3.org/Graphics/SVG/1.1/DTD/svg11.dtd">
<svg xmlns="http://www.w3.org/2000/svg" version="1.1" width="192px" height="192px" style="shape-rendering:geometricPrecision; text-rendering:geometricPrecision; image-rendering:optimizeQuality; fill-rule:evenodd; clip-rule:evenodd" xmlns:xlink="http://www.w3.org/1999/xlink">
<g><path style="opacity:0.989" fill="#f6b63d" d="M 139.5,17.5 C 139.5,18.1667 139.833,18.5 140.5,18.5C 146.092,22.0839 151.426,26.0839 156.5,30.5C 156.5,31.1667 156.833,31.5 157.5,31.5C 157.5,32.1667 157.833,32.5 158.5,32.5C 159.326,34.2644 160.659,35.5977 162.5,36.5C 163.5,37.8333 164.5,39.1667 165.5,40.5C 166.924,43.0179 168.591,45.3512 170.5,47.5C 171.167,47.5 171.5,47.1667 171.5,46.5C 173.083,48.6626 174.416,50.9959 175.5,53.5C 174.957,53.56 174.624,53.8933 174.5,54.5C 176.551,59.2562 178.551,63.9228 180.5,68.5C 180.993,70.8056 181.326,73.139 181.5,75.5C 182.773,88.8306 182.773,102.164 181.5,115.5C 181.279,118.067 180.612,120.401 179.5,122.5C 175.868,129.763 172.202,137.097 168.5,144.5C 167.928,146.255 167.094,147.922 166,149.5C 160.576,155.431 154.742,160.764 148.5,165.5C 143.693,168.9 138.36,171.234 132.5,172.5C 131.713,173.242 131.047,174.075 130.5,175C 126.416,175.231 122.416,175.898 118.5,177C 119.741,178.487 119.241,179.32 117,179.5C 114.522,178.668 112.022,178.501 109.5,179C 113.852,179.419 114.185,180.086 110.5,181C 105.214,181.964 99.8802,182.464 94.5,182.5C 87.1261,182.155 79.7927,181.488 72.5,180.5C 64.9882,176.913 57.3215,173.58 49.5,170.5C 17.1014,149.354 3.26807,119.354 8,80.5C 10.1115,68.6581 14.2781,57.6581 20.5,47.5C 21.4884,46.205 22.4884,44.8717 23.5,43.5C 23.5,43.1667 23.5,42.8333 23.5,42.5C 24.5,42.1667 25.1667,41.5 25.5,40.5C 26.5,39.1667 27.5,37.8333 28.5,36.5C 30.1667,35.5 31.5,34.1667 32.5,32.5C 33.1667,32.5 33.5,32.1667 33.5,31.5C 34.1667,31.5 34.5,31.1667 34.5,30.5C 39.5743,26.0839 44.9076,22.0839 50.5,18.5C 51.1667,18.5 51.5,18.1667 51.5,17.5C 80.8333,2.83333 110.167,2.83333 139.5,17.5 Z"/></g>
<g><path style="opacity:0.004" fill="#913f02" d="M 51.5,17.5 C 50.8333,17.5 50.5,17.8333 50.5,18.5C 48.0248,18.2533 48.0248,17.5866 50.5,16.5C 51.1067,16.6236 51.44,16.9569 51.5,17.5 Z"/></g>
<g><path style="opacity:0.012" fill="#d57bfd" d="M 139.5,17.5 C 140.497,16.2875 141.497,16.4542 142.5,18C 141.906,18.4643 141.239,18.631 140.5,18.5C 139.833,18.5 139.5,18.1667 139.5,17.5 Z"/></g>
<g><path style="opacity:1" fill="#060504" d="M 84.5,17.5 C 131.855,15.8973 161.355,37.8973 173,83.5C 176.043,121.934 160.543,149.768 126.5,167C 86.1505,181.297 53.6505,171.13 29,136.5C 8.81098,96.7859 15.311,62.2859 48.5,33C 59.4098,25.2002 71.4098,20.0335 84.5,17.5 Z"/></g>
<g><path style="opacity:1" fill="#f6f6f6" d="M 59.5,29.5 C 63.8893,31.6867 67.8893,34.3534 71.5,37.5C 66.295,51.2809 60.795,64.9476 55,78.5C 54.3333,79.5 54.3333,80.5 55,81.5C 63.6085,67.8935 72.6085,54.5602 82,41.5C 85.4212,43.4608 88.9212,45.2941 92.5,47C 93.0219,47.5613 93.3552,48.228 93.5,49C 82.2157,65.0627 71.0491,81.2293 60,97.5C 56.5457,102.117 52.879,106.451 49,110.5C 42.9032,107.538 37.0698,104.204 31.5,100.5C 40.8412,76.8046 50.1746,53.1379 59.5,29.5 Z"/></g>
<g><path style="opacity:0.012" fill="#462f10" d="M 34.5,30.5 C 33.8333,30.5 33.5,30.8333 33.5,31.5C 32.8333,31.5 32.5,31.8333 32.5,32.5C 31.5,34.1667 30.1667,35.5 28.5,36.5C 28.7847,33.7197 30.4514,31.3864 33.5,29.5C 34.1067,29.6236 34.44,29.9569 34.5,30.5 Z"/></g>
<g><path style="opacity:0.325" fill="#a15f21" d="M 156.5,30.5 C 156.897,29.475 157.563,29.3083 158.5,30C 160.897,32.0265 162.23,34.1932 162.5,36.5C 160.659,35.5977 159.326,34.2644 158.5,32.5C 157.833,32.5 157.5,32.1667 157.5,31.5C 156.833,31.5 156.5,31.1667 156.5,30.5 Z"/></g>
<g><path style="opacity:0.004" fill="#291d05" d="M 25.5,40.5 C 25.1667,41.5 24.5,42.1667 23.5,42.5C 23.1667,42.5 22.8333,42.5 22.5,42.5C 22.8773,40.1759 23.8773,39.5092 25.5,40.5 Z"/></g>
<g><path style="opacity:0.02" fill="#441905" d="M 22.5,42.5 C 22.5,43.1667 22.8333,43.5 23.5,43.5C 22.4884,44.8717 21.4884,46.205 20.5,47.5C 20.5,46.8333 20.1667,46.5 19.5,46.5C 20.0256,44.7697 21.0256,43.4363 22.5,42.5 Z"/></g>
<g><path style="opacity:0.133" fill="#7f691f" d="M 171.5,46.5 C 170.833,46.5 170.5,46.8333 170.5,47.5C 168.591,45.3512 166.924,43.0179 165.5,40.5C 168.153,41.1401 170.153,43.1401 171.5,46.5 Z"/></g>
<g><path style="opacity:1" fill="#f6f6f6" d="M 99.5,55.5 C 111.018,54.8394 119.518,59.5061 125,69.5C 125.539,75.5628 124.205,81.2295 121,86.5C 114.333,98.5 107.667,110.5 101,122.5C 90.7068,132.049 80.7068,131.716 71,121.5C 67.9668,116.894 66.9668,111.894 68,106.5C 75.1417,91.5496 82.8084,76.883 91,62.5C 93.6278,59.7895 96.4611,57.4562 99.5,55.5 Z"/></g>
<g><path style="opacity:0.01" fill="#40300e" d="M 175.5,53.5 C 178.458,57.6911 180.458,62.3578 181.5,67.5C 180.833,67.5 180.5,67.8333 180.5,68.5C 178.551,63.9228 176.551,59.2562 174.5,54.5C 174.624,53.8933 174.957,53.56 175.5,53.5 Z"/></g>
<g><path style="opacity:0.066" fill="#070501" d="M 19.5,46.5 C 20.1667,46.5 20.5,46.8333 20.5,47.5C 14.2781,57.6581 10.1115,68.6581 8,80.5C 3.26807,119.354 17.1014,149.354 49.5,170.5C 56.2763,175.718 63.943,179.051 72.5,180.5C 97.5599,187.214 121.227,183.714 143.5,170C 145.618,168.951 147.284,167.451 148.5,165.5C 154.742,160.764 160.576,155.431 166,149.5C 167.094,147.922 167.928,146.255 168.5,144.5C 173.734,138.032 177.401,130.698 179.5,122.5C 180.612,120.401 181.279,118.067 181.5,115.5C 185.5,102.164 185.5,88.8308 181.5,75.5C 181.326,73.139 180.993,70.8056 180.5,68.5C 180.5,67.8333 180.833,67.5 181.5,67.5C 182.404,68.209 182.737,69.209 182.5,70.5C 184.735,81.7094 185.901,93.0427 186,104.5C 186.499,99.5111 186.666,94.5111 186.5,89.5C 189.573,132.511 171.907,164.011 133.5,184C 125.881,187.04 118.215,189.54 110.5,191.5C 100.5,191.5 90.5,191.5 80.5,191.5C 37.3802,181.212 11.8802,154.212 4,110.5C 1.65602,87.2127 6.82269,65.8794 19.5,46.5 Z"/></g>
<g><path style="opacity:1" fill="#0f0f0f" d="M 104.5,70.5 C 108.677,69.8416 110.177,71.5082 109,75.5C 102.467,88.737 95.3004,101.57 87.5,114C 83.3333,115.167 81.8333,113.667 83,109.5C 89.6713,96.1515 96.838,83.1515 104.5,70.5 Z"/></g>
<g><path style="opacity:1" fill="#f6f6f6" d="M 137.5,76.5 C 161.307,77.1147 167.974,88.1147 157.5,109.5C 156.277,110.614 154.944,110.781 153.5,110C 150.167,108 146.833,106 143.5,104C 146.659,100.405 147.659,96.4045 146.5,92C 144.833,91.3333 143.167,91.3333 141.5,92C 134.794,104.58 127.96,117.08 121,129.5C 120.667,135.5 123,136.833 128,133.5C 129.912,129.34 132.079,125.34 134.5,121.5C 133.263,120.719 132.263,119.719 131.5,118.5C 133.039,115.254 134.706,112.088 136.5,109C 137.5,108.333 138.5,108.333 139.5,109C 144.11,111.474 148.777,113.641 153.5,115.5C 147.056,129.053 140.056,142.386 132.5,155.5C 128.589,153.94 126.589,150.94 126.5,146.5C 111.565,149.069 104.732,142.735 106,127.5C 113.127,112.581 120.793,97.9144 129,83.5C 131.441,80.5464 134.275,78.2131 137.5,76.5 Z"/></g>
<g><path style="opacity:0.031" fill="#5f4a11" d="M 182.5,70.5 C 185.092,76.4522 186.425,82.7855 186.5,89.5C 186.666,94.5111 186.499,99.5111 186,104.5C 185.901,93.0427 184.735,81.7094 182.5,70.5 Z"/></g>
<g><path style="opacity:0.894" fill="#b9892d" d="M 181.5,75.5 C 185.5,88.8308 185.5,102.164 181.5,115.5C 182.773,102.164 182.773,88.8306 181.5,75.5 Z"/></g>
<g><path style="opacity:0.78" fill="#a57a29" d="M 179.5,122.5 C 177.401,130.698 173.734,138.032 168.5,144.5C 172.202,137.097 175.868,129.763 179.5,122.5 Z"/></g>
<g><path style="opacity:1" fill="#b2842c" d="M 49.5,170.5 C 57.3215,173.58 64.9882,176.913 72.5,180.5C 63.943,179.051 56.2763,175.718 49.5,170.5 Z"/></g>
<g><path style="opacity:0.994" fill="#cd9833" d="M 148.5,165.5 C 147.284,167.451 145.618,168.951 143.5,170C 121.227,183.714 97.5599,187.214 72.5,180.5C 79.7927,181.488 87.1261,182.155 94.5,182.5C 99.8802,182.464 105.214,181.964 110.5,181C 114.185,180.086 113.852,179.419 109.5,179C 112.022,178.501 114.522,178.668 117,179.5C 119.241,179.32 119.741,178.487 118.5,177C 122.416,175.898 126.416,175.231 130.5,175C 131.047,174.075 131.713,173.242 132.5,172.5C 138.36,171.234 143.693,168.9 148.5,165.5 Z"/></g>
</svg>
