<?xml version="1.0" encoding="UTF-8"?>
<!DOCTYPE svg PUBLIC "-//W3C//DTD SVG 1.1//EN" "http://www.w3.org/Graphics/SVG/1.1/DTD/svg11.dtd">
<svg xmlns="http://www.w3.org/2000/svg" version="1.1" width="456px" height="456px" style="shape-rendering:geometricPrecision; text-rendering:geometricPrecision; image-rendering:optimizeQuality; fill-rule:evenodd; clip-rule:evenodd" xmlns:xlink="http://www.w3.org/1999/xlink">
<g><path style="opacity:1" fill="#030200" d="M -0.5,-0.5 C 4.83333,-0.5 10.1667,-0.5 15.5,-0.5C 15.6667,45.8345 15.5,92.1679 15,138.5C 14.0913,140.658 13.9246,142.658 14.5,144.5C 7.35226,164.773 2.35226,185.44 -0.5,206.5C -0.5,137.5 -0.5,68.5 -0.5,-0.5 Z"/></g>
<g><path style="opacity:1" fill="#0b0800" d="M 15.5,-0.5 C 23.8333,-0.5 32.1667,-0.5 40.5,-0.5C 40.4756,31.9819 40.4756,64.3152 40.5,96.5C 30.2629,111.64 21.5963,127.64 14.5,144.5C 13.9246,142.658 14.0913,140.658 15,138.5C 15.5,92.1679 15.6667,45.8345 15.5,-0.5 Z"/></g>
<g><path style="opacity:1" fill="#150f02" d="M 40.5,-0.5 C 45.8333,-0.5 51.1667,-0.5 56.5,-0.5C 56.3334,24.1689 56.5,48.8356 57,73.5C 57.8382,72.001 58.6715,71.6676 59.5,72.5C 53.1362,80.5243 46.8028,88.5243 40.5,96.5C 40.4756,64.3152 40.4756,31.9819 40.5,-0.5 Z"/></g>
<g><path style="opacity:1" fill="#1c1402" d="M 56.5,-0.5 C 61.8333,-0.5 67.1667,-0.5 72.5,-0.5C 72.8263,19.0761 72.4929,38.5761 71.5,58C 72.0944,58.4643 72.7611,58.631 73.5,58.5C 69.1667,63.5 64.5,68.1667 59.5,72.5C 58.6715,71.6676 57.8382,72.001 57,73.5C 56.5,48.8356 56.3334,24.1689 56.5,-0.5 Z"/></g>
<g><path style="opacity:1" fill="#231903" d="M 72.5,-0.5 C 77.1667,-0.5 81.8333,-0.5 86.5,-0.5C 86.8244,15.0779 86.491,30.5779 85.5,46C 86.4158,46.2784 87.0825,46.7784 87.5,47.5C 82.8333,51.1667 78.1667,54.8333 73.5,58.5C 72.7611,58.631 72.0944,58.4643 71.5,58C 72.4929,38.5761 72.8263,19.0761 72.5,-0.5 Z"/></g>
<g><path style="opacity:1" fill="#2c2004" d="M 86.5,-0.5 C 95.5,-0.5 104.5,-0.5 113.5,-0.5C 113.818,9.0834 113.485,18.5834 112.5,28C 113.416,28.2784 114.082,28.7784 114.5,29.5C 104.984,34.7558 95.9839,40.7558 87.5,47.5C 87.0825,46.7784 86.4158,46.2784 85.5,46C 86.491,30.5779 86.8244,15.0779 86.5,-0.5 Z"/></g>
<g><path style="opacity:1" fill="#352605" d="M 113.5,-0.5 C 118.833,-0.5 124.167,-0.5 129.5,-0.5C 128.929,6.78084 129.595,13.7808 131.5,20.5C 125.675,23.2453 120.008,26.2453 114.5,29.5C 114.082,28.7784 113.416,28.2784 112.5,28C 113.485,18.5834 113.818,9.0834 113.5,-0.5 Z"/></g>
<g><path style="opacity:1" fill="#3e2c06" d="M 129.5,-0.5 C 138.5,-0.5 147.5,-0.5 156.5,-0.5C 157.011,3.02967 156.344,6.19633 154.5,9C 156.381,8.90401 158.047,9.07068 159.5,9.5C 150.009,12.7747 140.675,16.4414 131.5,20.5C 129.595,13.7808 128.929,6.78084 129.5,-0.5 Z"/></g>
<g><path style="opacity:1" fill="#4a3608" d="M 156.5,-0.5 C 174.167,-0.5 191.833,-0.5 209.5,-0.5C 192.636,1.20975 175.97,4.54309 159.5,9.5C 158.047,9.07068 156.381,8.90401 154.5,9C 156.344,6.19633 157.011,3.02967 156.5,-0.5 Z"/></g>
<g><path style="opacity:1" fill="#fdbb3e" d="M 209.5,-0.5 C 221.167,-0.5 232.833,-0.5 244.5,-0.5C 269.446,2.48596 293.779,8.48596 317.5,17.5C 329.985,23.9088 342.318,30.5755 354.5,37.5C 364.31,44.915 373.976,52.5817 383.5,60.5C 393.568,71.2289 403.234,82.2289 412.5,93.5C 419.421,104.342 426.088,115.342 432.5,126.5C 434.969,133.239 437.636,139.906 440.5,146.5C 448.976,170.215 453.976,194.548 455.5,219.5C 455.5,224.167 455.5,228.833 455.5,233.5C 454.162,260.187 448.829,286.187 439.5,311.5C 435.473,320.557 431.14,329.557 426.5,338.5C 417.882,354.07 407.548,368.403 395.5,381.5C 391.5,385.833 387.5,390.167 383.5,394.5C 374.809,401.53 366.142,408.53 357.5,415.5C 350.566,419.11 343.9,423.11 337.5,427.5C 329.006,431.247 320.673,435.247 312.5,439.5C 290.322,447.266 267.656,452.599 244.5,455.5C 232.833,455.5 221.167,455.5 209.5,455.5C 190.819,453.583 172.486,449.583 154.5,443.5C 146.717,440.775 139.051,437.775 131.5,434.5C 125.675,431.755 120.008,428.755 114.5,425.5C 104.881,419.868 95.5472,413.868 86.5,407.5C 82.7977,403.797 78.7977,400.463 74.5,397.5C 69.8333,392.167 64.8333,387.167 59.5,382.5C 54.1371,376.142 48.8038,369.808 43.5,363.5C 32.4865,347.47 23.1532,330.47 15.5,312.5C 6.61727,288.839 1.28394,264.506 -0.5,239.5C -0.5,228.5 -0.5,217.5 -0.5,206.5C 2.35226,185.44 7.35226,164.773 14.5,144.5C 21.5963,127.64 30.2629,111.64 40.5,96.5C 46.8028,88.5243 53.1362,80.5243 59.5,72.5C 64.5,68.1667 69.1667,63.5 73.5,58.5C 78.1667,54.8333 82.8333,51.1667 87.5,47.5C 95.9839,40.7558 104.984,34.7558 114.5,29.5C 120.008,26.2453 125.675,23.2453 131.5,20.5C 140.675,16.4414 150.009,12.7747 159.5,9.5C 175.97,4.54309 192.636,1.20975 209.5,-0.5 Z"/></g>
<g><path style="opacity:1" fill="#85600f" d="M 244.5,-0.5 C 267.833,-0.5 291.167,-0.5 314.5,-0.5C 315.074,4.64827 314.407,9.4816 312.5,14C 315.109,14.8637 316.775,16.0303 317.5,17.5C 293.779,8.48596 269.446,2.48596 244.5,-0.5 Z"/></g>
<g><path style="opacity:1" fill="#956c10" d="M 314.5,-0.5 C 327.833,-0.5 341.167,-0.5 354.5,-0.5C 354.451,12.3758 354.451,25.0424 354.5,37.5C 342.318,30.5755 329.985,23.9088 317.5,17.5C 316.775,16.0303 315.109,14.8637 312.5,14C 314.407,9.4816 315.074,4.64827 314.5,-0.5 Z"/></g>
<g><path style="opacity:1" fill="#a37611" d="M 354.5,-0.5 C 364.833,-0.5 375.167,-0.5 385.5,-0.5C 385.264,18.3822 385.264,37.2155 385.5,56C 384.418,57.3297 383.751,58.8297 383.5,60.5C 373.976,52.5817 364.31,44.915 354.5,37.5C 354.451,25.0424 354.451,12.3758 354.5,-0.5 Z"/></g>
<g><path style="opacity:1" fill="#b07f13" d="M 385.5,-0.5 C 395.167,-0.5 404.833,-0.5 414.5,-0.5C 414.667,30.5018 414.5,61.5018 414,92.5C 412.893,91.2881 412.393,91.6214 412.5,93.5C 403.234,82.2289 393.568,71.2289 383.5,60.5C 383.751,58.8297 384.418,57.3297 385.5,56C 385.264,37.2155 385.264,18.3822 385.5,-0.5 Z"/></g>
<g><path style="opacity:1" fill="#b88514" d="M 414.5,-0.5 C 418.833,-0.5 423.167,-0.5 427.5,-0.5C 427.597,37.3832 427.931,75.2165 428.5,113C 427.833,113.333 427.167,113.667 426.5,114C 428.912,117.99 430.912,122.157 432.5,126.5C 426.088,115.342 419.421,104.342 412.5,93.5C 412.393,91.6214 412.893,91.2881 414,92.5C 414.5,61.5018 414.667,30.5018 414.5,-0.5 Z"/></g>
<g><path style="opacity:1" fill="#be8a14" d="M 427.5,-0.5 C 432.167,-0.5 436.833,-0.5 441.5,-0.5C 441.808,48.8022 441.474,97.8022 440.5,146.5C 437.636,139.906 434.969,133.239 432.5,126.5C 430.912,122.157 428.912,117.99 426.5,114C 427.167,113.667 427.833,113.333 428.5,113C 427.931,75.2165 427.597,37.3832 427.5,-0.5 Z"/></g>
<g><path style="opacity:1" fill="#c48e15" d="M 441.5,-0.5 C 446.167,-0.5 450.833,-0.5 455.5,-0.5C 455.5,72.8333 455.5,146.167 455.5,219.5C 453.976,194.548 448.976,170.215 440.5,146.5C 441.474,97.8022 441.808,48.8022 441.5,-0.5 Z"/></g>
<g><path style="opacity:1" fill="#010101" d="M 207.5,29.5 C 278.72,25.7102 337.22,50.7102 383,104.5C 429.045,166.857 437.712,234.19 409,306.5C 377.953,372.846 326.12,412.013 253.5,424C 168.62,431.307 103.12,399.474 57,328.5C 22.1925,264.99 20.5258,200.656 52,135.5C 86.4156,74.7023 138.249,39.3689 207.5,29.5 Z"/></g>
<g><path style="opacity:1" fill="#fcfcfc" d="M 135.5,60.5 C 146.961,65.7291 157.961,71.7291 168.5,78.5C 151.948,118.012 136.115,157.679 121,197.5C 144.637,161.697 168.471,126.031 192.5,90.5C 203.526,96.0089 214.192,102.009 224.5,108.5C 187.806,160.028 151.306,211.695 115,263.5C 113.938,264.899 112.605,265.899 111,266.5C 95.6085,258.555 80.4418,250.221 65.5,241.5C 89.2324,181.3 112.566,120.967 135.5,60.5 Z"/></g>
<g><path style="opacity:1" fill="#fcfcfc" d="M 241.5,126.5 C 262.282,125.37 279.782,132.37 294,147.5C 303.796,161.623 305.13,176.623 298,192.5C 280.016,227.808 261.016,262.475 241,296.5C 223.409,315.548 203.242,318.715 180.5,306C 157.676,291.183 151.51,271.016 162,245.5C 178.667,214.167 195.333,182.833 212,151.5C 218.702,139.285 228.535,130.952 241.5,126.5 Z"/></g>
<g><path style="opacity:1" fill="#040404" d="M 250.5,164.5 C 261.036,163.193 264.869,167.526 262,177.5C 245.588,208.659 228.921,239.659 212,270.5C 207.297,277.555 201.964,278.222 196,272.5C 195.342,268.428 195.675,264.428 197,260.5C 212.333,231.833 227.667,203.167 243,174.5C 244.947,170.724 247.447,167.39 250.5,164.5 Z"/></g>
<g><path style="opacity:1" fill="#fcfcfc" d="M 338.5,178.5 C 361.728,177.367 380.228,186.034 394,204.5C 397.911,212.059 399.245,220.059 398,228.5C 394.695,242.25 389.528,255.25 382.5,267.5C 371.34,261.754 360.34,255.754 349.5,249.5C 352.921,243.658 356.088,237.658 359,231.5C 362.535,219.035 358.035,214.535 345.5,218C 342.048,221.734 339.215,225.9 337,230.5C 322.079,258.008 307.412,285.675 293,313.5C 289.584,324.186 293.417,329.019 304.5,328C 306.286,327.215 307.786,326.049 309,324.5C 314.833,314.167 320.667,303.833 326.5,293.5C 323.592,291.557 320.926,289.391 318.5,287C 323.278,277.276 328.445,267.776 334,258.5C 347.941,265.549 361.441,273.216 374.5,281.5C 357.342,314.486 339.675,347.152 321.5,379.5C 317.5,377.5 313.5,375.5 309.5,373.5C 308.667,367.509 308.5,361.509 309,355.5C 290.258,364.485 273.925,361.152 260,345.5C 253.894,336.408 251.561,326.408 253,315.5C 254.526,307.116 257.192,299.116 261,291.5C 276,263.5 291,235.5 306,207.5C 313.299,193.691 324.133,184.025 338.5,178.5 Z"/></g>
<g><path style="opacity:1" fill="#040300" d="M -0.5,239.5 C 1.28394,264.506 6.61727,288.839 15.5,312.5C 15.5,360.167 15.5,407.833 15.5,455.5C 10.1667,455.5 4.83333,455.5 -0.5,455.5C -0.5,383.5 -0.5,311.5 -0.5,239.5 Z"/></g>
<g><path style="opacity:1" fill="#c48e15" d="M 455.5,233.5 C 455.5,307.5 455.5,381.5 455.5,455.5C 450.833,455.5 446.167,455.5 441.5,455.5C 441.667,408.165 441.5,360.832 441,313.5C 440.722,312.584 440.222,311.918 439.5,311.5C 448.829,286.187 454.162,260.187 455.5,233.5 Z"/></g>
<g><path style="opacity:1" fill="#be8a14" d="M 439.5,311.5 C 440.222,311.918 440.722,312.584 441,313.5C 441.5,360.832 441.667,408.165 441.5,455.5C 436.833,455.5 432.167,455.5 427.5,455.5C 427.682,418.09 428.016,380.59 428.5,343C 427.833,342.333 427.167,341.667 426.5,341C 427.774,340.023 427.774,339.189 426.5,338.5C 431.14,329.557 435.473,320.557 439.5,311.5 Z"/></g>
<g><path style="opacity:1" fill="#0c0800" d="M 15.5,312.5 C 23.1532,330.47 32.4865,347.47 43.5,363.5C 42.5228,394.135 42.1895,424.802 42.5,455.5C 33.5,455.5 24.5,455.5 15.5,455.5C 15.5,407.833 15.5,360.167 15.5,312.5 Z"/></g>
<g><path style="opacity:1" fill="#b68413" d="M 426.5,338.5 C 427.774,339.189 427.774,340.023 426.5,341C 427.167,341.667 427.833,342.333 428.5,343C 428.016,380.59 427.682,418.09 427.5,455.5C 417.833,455.5 408.167,455.5 398.5,455.5C 398.5,430.833 398.5,406.167 398.5,381.5C 397.5,381.5 396.5,381.5 395.5,381.5C 407.548,368.403 417.882,354.07 426.5,338.5 Z"/></g>
<g><path style="opacity:1" fill="#160f02" d="M 43.5,363.5 C 48.8038,369.808 54.1371,376.142 59.5,382.5C 59.5,406.833 59.5,431.167 59.5,455.5C 53.8333,455.5 48.1667,455.5 42.5,455.5C 42.1895,424.802 42.5228,394.135 43.5,363.5 Z"/></g>
<g><path style="opacity:1" fill="#1c1402" d="M 59.5,382.5 C 64.8333,387.167 69.8333,392.167 74.5,397.5C 72.5124,416.471 71.8457,435.804 72.5,455.5C 68.1667,455.5 63.8333,455.5 59.5,455.5C 59.5,431.167 59.5,406.833 59.5,382.5 Z"/></g>
<g><path style="opacity:1" fill="#ab7b12" d="M 395.5,381.5 C 396.5,381.5 397.5,381.5 398.5,381.5C 398.5,406.167 398.5,430.833 398.5,455.5C 394.167,455.5 389.833,455.5 385.5,455.5C 384.43,436.105 384.43,416.605 385.5,397C 384.244,396.583 383.577,395.75 383.5,394.5C 387.5,390.167 391.5,385.833 395.5,381.5 Z"/></g>
<g><path style="opacity:1" fill="#a37611" d="M 383.5,394.5 C 383.577,395.75 384.244,396.583 385.5,397C 384.43,416.605 384.43,436.105 385.5,455.5C 376.167,455.5 366.833,455.5 357.5,455.5C 357.454,441.958 357.454,428.624 357.5,415.5C 366.142,408.53 374.809,401.53 383.5,394.5 Z"/></g>
<g><path style="opacity:1" fill="#231903" d="M 74.5,397.5 C 78.7977,400.463 82.7977,403.797 86.5,407.5C 83.9991,407.511 83.8324,408.178 86,409.5C 86.4999,424.83 86.6666,440.163 86.5,455.5C 81.8333,455.5 77.1667,455.5 72.5,455.5C 71.8457,435.804 72.5124,416.471 74.5,397.5 Z"/></g>
<g><path style="opacity:1" fill="#2c2004" d="M 86.5,407.5 C 95.5472,413.868 104.881,419.868 114.5,425.5C 114.082,426.222 113.416,426.722 112.5,427C 113.485,436.417 113.818,445.917 113.5,455.5C 104.5,455.5 95.5,455.5 86.5,455.5C 86.6666,440.163 86.4999,424.83 86,409.5C 83.8324,408.178 83.9991,407.511 86.5,407.5 Z"/></g>
<g><path style="opacity:1" fill="#996e10" d="M 357.5,415.5 C 357.454,428.624 357.454,441.958 357.5,455.5C 352.167,455.5 346.833,455.5 341.5,455.5C 341.5,446.167 341.5,436.833 341.5,427.5C 340.167,427.5 338.833,427.5 337.5,427.5C 343.9,423.11 350.566,419.11 357.5,415.5 Z"/></g>
<g><path style="opacity:1" fill="#352605" d="M 114.5,425.5 C 120.008,428.755 125.675,431.755 131.5,434.5C 129.595,441.219 128.929,448.219 129.5,455.5C 124.167,455.5 118.833,455.5 113.5,455.5C 113.818,445.917 113.485,436.417 112.5,427C 113.416,426.722 114.082,426.222 114.5,425.5 Z"/></g>
<g><path style="opacity:1" fill="#8f670f" d="M 337.5,427.5 C 338.833,427.5 340.167,427.5 341.5,427.5C 341.5,436.833 341.5,446.167 341.5,455.5C 332.5,455.5 323.5,455.5 314.5,455.5C 315.113,449.729 314.446,444.396 312.5,439.5C 320.673,435.247 329.006,431.247 337.5,427.5 Z"/></g>
<g><path style="opacity:1" fill="#3d2c06" d="M 131.5,434.5 C 139.051,437.775 146.717,440.775 154.5,443.5C 155.349,446.036 156.349,448.536 157.5,451C 156.272,452.49 156.272,453.99 157.5,455.5C 148.167,455.5 138.833,455.5 129.5,455.5C 128.929,448.219 129.595,441.219 131.5,434.5 Z"/></g>
<g><path style="opacity:1" fill="#835f0e" d="M 312.5,439.5 C 314.446,444.396 315.113,449.729 314.5,455.5C 291.167,455.5 267.833,455.5 244.5,455.5C 267.656,452.599 290.322,447.266 312.5,439.5 Z"/></g>
<g><path style="opacity:1" fill="#4d3808" d="M 154.5,443.5 C 172.486,449.583 190.819,453.583 209.5,455.5C 192.167,455.5 174.833,455.5 157.5,455.5C 156.272,453.99 156.272,452.49 157.5,451C 156.349,448.536 155.349,446.036 154.5,443.5 Z"/></g>
</svg>
