<?xml version="1.0" encoding="UTF-8"?>
<!DOCTYPE svg PUBLIC "-//W3C//DTD SVG 1.1//EN" "http://www.w3.org/Graphics/SVG/1.1/DTD/svg11.dtd">
<svg xmlns="http://www.w3.org/2000/svg" version="1.1" width="1024px" height="1024px" style="shape-rendering:geometricPrecision; text-rendering:geometricPrecision; image-rendering:optimizeQuality; fill-rule:evenodd; clip-rule:evenodd" xmlns:xlink="http://www.w3.org/1999/xlink">
<g><path style="opacity:1" fill="#030200" d="M -0.5,-0.5 C 10.5,-0.5 21.5,-0.5 32.5,-0.5C 32.5928,1.40457 32.9262,3.23791 33.5,5C 30.8333,6.33333 30.8333,7.66667 33.5,9C 33.5,10.3333 33.5,11.6667 33.5,13C 30.8333,14.3333 30.8333,15.6667 33.5,17C 33.5,18.3333 33.5,19.6667 33.5,21C 30.8333,22.3333 30.8333,23.6667 33.5,25C 33.5,26.3333 33.5,27.6667 33.5,29C 30.8333,30.3333 30.8333,31.6667 33.5,33C 33.5,34.3333 33.5,35.6667 33.5,37C 30.8333,38.3333 30.8333,39.6667 33.5,41C 33.5,42.3333 33.5,43.6667 33.5,45C 30.8333,46.3333 30.8333,47.6667 33.5,49C 33.5,50.3333 33.5,51.6667 33.5,53C 30.8333,54.3333 30.8333,55.6667 33.5,57C 33.5,58.3333 33.5,59.6667 33.5,61C 30.8333,62.3333 30.8333,63.6667 33.5,65C 33.5,66.3333 33.5,67.6667 33.5,69C 30.8333,70.3333 30.8333,71.6667 33.5,73C 33.5,74.3333 33.5,75.6667 33.5,77C 30.8333,78.3333 30.8333,79.6667 33.5,81C 33.5,82.3333 33.5,83.6667 33.5,85C 30.8333,86.3333 30.8333,87.6667 33.5,89C 33.5,90.3333 33.5,91.6667 33.5,93C 30.8333,94.3333 30.8333,95.6667 33.5,97C 33.5,98.3333 33.5,99.6667 33.5,101C 30.8333,102.333 30.8333,103.667 33.5,105C 33.5,106.333 33.5,107.667 33.5,109C 30.8333,110.333 30.8333,111.667 33.5,113C 33.5,114.333 33.5,115.667 33.5,117C 30.8333,118.333 30.8333,119.667 33.5,121C 33.5,122.333 33.5,123.667 33.5,125C 30.8333,126.333 30.8333,127.667 33.5,129C 33.5,130.333 33.5,131.667 33.5,133C 30.8333,134.333 30.8333,135.667 33.5,137C 33.5,138.333 33.5,139.667 33.5,141C 30.8333,142.333 30.8333,143.667 33.5,145C 33.5,146.333 33.5,147.667 33.5,149C 30.8333,150.333 30.8333,151.667 33.5,153C 33.5,154.333 33.5,155.667 33.5,157C 30.8333,158.333 30.8333,159.667 33.5,161C 33.5,162.333 33.5,163.667 33.5,165C 30.8333,166.333 30.8333,167.667 33.5,169C 33.5,170.333 33.5,171.667 33.5,173C 30.8333,174.333 30.8333,175.667 33.5,177C 33.5,178.333 33.5,179.667 33.5,181C 30.8333,182.333 30.8333,183.667 33.5,185C 33.5,186.333 33.5,187.667 33.5,189C 30.8333,190.333 30.8333,191.667 33.5,193C 33.5,194.333 33.5,195.667 33.5,197C 30.8333,198.333 30.8333,199.667 33.5,201C 33.5,202.333 33.5,203.667 33.5,205C 30.8333,206.333 30.8333,207.667 33.5,209C 33.5,210.333 33.5,211.667 33.5,213C 30.8333,214.333 30.8333,215.667 33.5,217C 33.5,218.333 33.5,219.667 33.5,221C 30.8333,222.333 30.8333,223.667 33.5,225C 33.5,226.333 33.5,227.667 33.5,229C 30.8333,230.333 30.8333,231.667 33.5,233C 33.5,234.333 33.5,235.667 33.5,237C 30.8333,238.333 30.8333,239.667 33.5,241C 33.5,242.333 33.5,243.667 33.5,245C 30.8333,246.333 30.8333,247.667 33.5,249C 32.1667,252.333 32.1667,255.667 33.5,259C 30.8333,260.333 30.8333,261.667 33.5,263C 33.5,264.333 33.5,265.667 33.5,267C 30.8333,268.333 30.8333,269.667 33.5,271C 33.5,272.333 33.5,273.667 33.5,275C 30.8333,276.333 30.8333,277.667 33.5,279C 33.5,280.333 33.5,281.667 33.5,283C 30.8333,284.333 30.8333,285.667 33.5,287C 33.5,288.333 33.5,289.667 33.5,291C 30.8333,292.333 30.8333,293.667 33.5,295C 33.5,296.333 33.5,297.667 33.5,299C 30.8333,300.333 30.8333,301.667 33.5,303C 33.5,304.333 33.5,305.667 33.5,307C 30.8333,308.333 30.8333,309.667 33.5,311C 33.5,312.333 33.5,313.667 33.5,315C 30.8333,316.333 30.8333,317.667 33.5,319C 32.8311,321.33 32.8311,323.83 33.5,326.5C 14.8649,377.006 3.53152,429.006 -0.5,482.5C -0.5,321.5 -0.5,160.5 -0.5,-0.5 Z"/></g>
<g><path style="opacity:1" fill="#0a0701" d="M 32.5,-0.5 C 43.1667,-0.5 53.8333,-0.5 64.5,-0.5C 63.4024,85.7155 63.4024,171.882 64.5,258C 63.8333,258.667 63.1667,259.333 62.5,260C 63.2524,260.671 63.5858,261.504 63.5,262.5C 52.3866,283.389 42.3866,304.723 33.5,326.5C 32.8311,323.83 32.8311,321.33 33.5,319C 30.8333,317.667 30.8333,316.333 33.5,315C 33.5,313.667 33.5,312.333 33.5,311C 30.8333,309.667 30.8333,308.333 33.5,307C 33.5,305.667 33.5,304.333 33.5,303C 30.8333,301.667 30.8333,300.333 33.5,299C 33.5,297.667 33.5,296.333 33.5,295C 30.8333,293.667 30.8333,292.333 33.5,291C 33.5,289.667 33.5,288.333 33.5,287C 30.8333,285.667 30.8333,284.333 33.5,283C 33.5,281.667 33.5,280.333 33.5,279C 30.8333,277.667 30.8333,276.333 33.5,275C 33.5,273.667 33.5,272.333 33.5,271C 30.8333,269.667 30.8333,268.333 33.5,267C 33.5,265.667 33.5,264.333 33.5,263C 30.8333,261.667 30.8333,260.333 33.5,259C 32.1667,255.667 32.1667,252.333 33.5,249C 30.8333,247.667 30.8333,246.333 33.5,245C 33.5,243.667 33.5,242.333 33.5,241C 30.8333,239.667 30.8333,238.333 33.5,237C 33.5,235.667 33.5,234.333 33.5,233C 30.8333,231.667 30.8333,230.333 33.5,229C 33.5,227.667 33.5,226.333 33.5,225C 30.8333,223.667 30.8333,222.333 33.5,221C 33.5,219.667 33.5,218.333 33.5,217C 30.8333,215.667 30.8333,214.333 33.5,213C 33.5,211.667 33.5,210.333 33.5,209C 30.8333,207.667 30.8333,206.333 33.5,205C 33.5,203.667 33.5,202.333 33.5,201C 30.8333,199.667 30.8333,198.333 33.5,197C 33.5,195.667 33.5,194.333 33.5,193C 30.8333,191.667 30.8333,190.333 33.5,189C 33.5,187.667 33.5,186.333 33.5,185C 30.8333,183.667 30.8333,182.333 33.5,181C 33.5,179.667 33.5,178.333 33.5,177C 30.8333,175.667 30.8333,174.333 33.5,173C 33.5,171.667 33.5,170.333 33.5,169C 30.8333,167.667 30.8333,166.333 33.5,165C 33.5,163.667 33.5,162.333 33.5,161C 30.8333,159.667 30.8333,158.333 33.5,157C 33.5,155.667 33.5,154.333 33.5,153C 30.8333,151.667 30.8333,150.333 33.5,149C 33.5,147.667 33.5,146.333 33.5,145C 30.8333,143.667 30.8333,142.333 33.5,141C 33.5,139.667 33.5,138.333 33.5,137C 30.8333,135.667 30.8333,134.333 33.5,133C 33.5,131.667 33.5,130.333 33.5,129C 30.8333,127.667 30.8333,126.333 33.5,125C 33.5,123.667 33.5,122.333 33.5,121C 30.8333,119.667 30.8333,118.333 33.5,117C 33.5,115.667 33.5,114.333 33.5,113C 30.8333,111.667 30.8333,110.333 33.5,109C 33.5,107.667 33.5,106.333 33.5,105C 30.8333,103.667 30.8333,102.333 33.5,101C 33.5,99.6667 33.5,98.3333 33.5,97C 30.8333,95.6667 30.8333,94.3333 33.5,93C 33.5,91.6667 33.5,90.3333 33.5,89C 30.8333,87.6667 30.8333,86.3333 33.5,85C 33.5,83.6667 33.5,82.3333 33.5,81C 30.8333,79.6667 30.8333,78.3333 33.5,77C 33.5,75.6667 33.5,74.3333 33.5,73C 30.8333,71.6667 30.8333,70.3333 33.5,69C 33.5,67.6667 33.5,66.3333 33.5,65C 30.8333,63.6667 30.8333,62.3333 33.5,61C 33.5,59.6667 33.5,58.3333 33.5,57C 30.8333,55.6667 30.8333,54.3333 33.5,53C 33.5,51.6667 33.5,50.3333 33.5,49C 30.8333,47.6667 30.8333,46.3333 33.5,45C 33.5,43.6667 33.5,42.3333 33.5,41C 30.8333,39.6667 30.8333,38.3333 33.5,37C 33.5,35.6667 33.5,34.3333 33.5,33C 30.8333,31.6667 30.8333,30.3333 33.5,29C 33.5,27.6667 33.5,26.3333 33.5,25C 30.8333,23.6667 30.8333,22.3333 33.5,21C 33.5,19.6667 33.5,18.3333 33.5,17C 30.8333,15.6667 30.8333,14.3333 33.5,13C 33.5,11.6667 33.5,10.3333 33.5,9C 30.8333,7.66667 30.8333,6.33333 33.5,5C 32.9262,3.23791 32.5928,1.40457 32.5,-0.5 Z"/></g>
<g><path style="opacity:1" fill="#0f0b01" d="M 64.5,-0.5 C 74.5,-0.5 84.5,-0.5 94.5,-0.5C 94.0706,70.7147 94.0706,142.048 94.5,213.5C 83.7639,229.571 73.4306,245.905 63.5,262.5C 63.5858,261.504 63.2524,260.671 62.5,260C 63.1667,259.333 63.8333,258.667 64.5,258C 63.4024,171.882 63.4024,85.7155 64.5,-0.5 Z"/></g>
<g><path style="opacity:1" fill="#161002" d="M 94.5,-0.5 C 106.5,-0.5 118.5,-0.5 130.5,-0.5C 129.294,0.880401 129.627,2.04707 131.5,3C 128.833,4.33333 128.833,5.66667 131.5,7C 128.833,8.33333 128.833,9.66667 131.5,11C 128.833,12.3333 128.833,13.6667 131.5,15C 128.833,16.3333 128.833,17.6667 131.5,19C 128.833,20.3333 128.833,21.6667 131.5,23C 128.833,24.3333 128.833,25.6667 131.5,27C 128.833,28.3333 128.833,29.6667 131.5,31C 128.833,32.3333 128.833,33.6667 131.5,35C 128.833,36.3333 128.833,37.6667 131.5,39C 128.833,40.3333 128.833,41.6667 131.5,43C 128.833,44.3333 128.833,45.6667 131.5,47C 128.833,48.3333 128.833,49.6667 131.5,51C 128.833,52.3333 128.833,53.6667 131.5,55C 128.833,56.3333 128.833,57.6667 131.5,59C 128.833,60.3333 128.833,61.6667 131.5,63C 128.833,64.3333 128.833,65.6667 131.5,67C 128.833,68.3333 128.833,69.6667 131.5,71C 128.833,72.3333 128.833,73.6667 131.5,75C 128.833,76.3333 128.833,77.6667 131.5,79C 128.833,80.3333 128.833,81.6667 131.5,83C 128.833,84.3333 128.833,85.6667 131.5,87C 128.833,88.3333 128.833,89.6667 131.5,91C 128.833,92.3333 128.833,93.6667 131.5,95C 128.833,96.3333 128.833,97.6667 131.5,99C 128.833,100.333 128.833,101.667 131.5,103C 128.833,104.333 128.833,105.667 131.5,107C 128.833,108.333 128.833,109.667 131.5,111C 128.833,112.333 128.833,113.667 131.5,115C 128.833,116.333 128.833,117.667 131.5,119C 128.833,120.333 128.833,121.667 131.5,123C 128.833,124.333 128.833,125.667 131.5,127C 128.833,128.333 128.833,129.667 131.5,131C 128.833,132.333 128.833,133.667 131.5,135C 128.833,136.333 128.833,137.667 131.5,139C 128.833,140.333 128.833,141.667 131.5,143C 128.833,144.333 128.833,145.667 131.5,147C 128.833,148.333 128.833,149.667 131.5,151C 128.833,152.333 128.833,153.667 131.5,155C 128.833,156.333 128.833,157.667 131.5,159C 128.833,160.333 128.833,161.667 131.5,163C 129.069,164.432 129.069,165.932 131.5,167.5C 119.136,182.858 106.803,198.191 94.5,213.5C 94.0706,142.048 94.0706,70.7147 94.5,-0.5 Z"/></g>
<g><path style="opacity:1" fill="#1c1403" d="M 130.5,-0.5 C 140.5,-0.5 150.5,-0.5 160.5,-0.5C 160.593,1.40457 160.926,3.23791 161.5,5C 158.833,6.33333 158.833,7.66667 161.5,9C 161.5,10.3333 161.5,11.6667 161.5,13C 158.833,14.3333 158.833,15.6667 161.5,17C 161.5,18.3333 161.5,19.6667 161.5,21C 158.833,22.3333 158.833,23.6667 161.5,25C 161.5,26.3333 161.5,27.6667 161.5,29C 158.833,30.3333 158.833,31.6667 161.5,33C 161.5,34.3333 161.5,35.6667 161.5,37C 158.833,38.3333 158.833,39.6667 161.5,41C 161.5,42.3333 161.5,43.6667 161.5,45C 158.833,46.3333 158.833,47.6667 161.5,49C 161.5,50.3333 161.5,51.6667 161.5,53C 158.833,54.3333 158.833,55.6667 161.5,57C 161.5,58.3333 161.5,59.6667 161.5,61C 158.833,62.3333 158.833,63.6667 161.5,65C 161.5,66.3333 161.5,67.6667 161.5,69C 158.833,70.3333 158.833,71.6667 161.5,73C 161.5,74.3333 161.5,75.6667 161.5,77C 158.833,78.3333 158.833,79.6667 161.5,81C 161.5,82.3333 161.5,83.6667 161.5,85C 158.833,86.3333 158.833,87.6667 161.5,89C 161.5,90.3333 161.5,91.6667 161.5,93C 158.833,94.3333 158.833,95.6667 161.5,97C 161.5,98.3333 161.5,99.6667 161.5,101C 158.833,102.333 158.833,103.667 161.5,105C 161.5,106.333 161.5,107.667 161.5,109C 158.833,110.333 158.833,111.667 161.5,113C 161.5,114.333 161.5,115.667 161.5,117C 158.833,118.333 158.833,119.667 161.5,121C 161.5,122.333 161.5,123.667 161.5,125C 158.833,126.333 158.833,127.667 161.5,129C 161.5,130.333 161.5,131.667 161.5,133C 159.069,134.432 159.069,135.932 161.5,137.5C 151.887,147.779 141.887,157.779 131.5,167.5C 129.069,165.932 129.069,164.432 131.5,163C 128.833,161.667 128.833,160.333 131.5,159C 128.833,157.667 128.833,156.333 131.5,155C 128.833,153.667 128.833,152.333 131.5,151C 128.833,149.667 128.833,148.333 131.5,147C 128.833,145.667 128.833,144.333 131.5,143C 128.833,141.667 128.833,140.333 131.5,139C 128.833,137.667 128.833,136.333 131.5,135C 128.833,133.667 128.833,132.333 131.5,131C 128.833,129.667 128.833,128.333 131.5,127C 128.833,125.667 128.833,124.333 131.5,123C 128.833,121.667 128.833,120.333 131.5,119C 128.833,117.667 128.833,116.333 131.5,115C 128.833,113.667 128.833,112.333 131.5,111C 128.833,109.667 128.833,108.333 131.5,107C 128.833,105.667 128.833,104.333 131.5,103C 128.833,101.667 128.833,100.333 131.5,99C 128.833,97.6667 128.833,96.3333 131.5,95C 128.833,93.6667 128.833,92.3333 131.5,91C 128.833,89.6667 128.833,88.3333 131.5,87C 128.833,85.6667 128.833,84.3333 131.5,83C 128.833,81.6667 128.833,80.3333 131.5,79C 128.833,77.6667 128.833,76.3333 131.5,75C 128.833,73.6667 128.833,72.3333 131.5,71C 128.833,69.6667 128.833,68.3333 131.5,67C 128.833,65.6667 128.833,64.3333 131.5,63C 128.833,61.6667 128.833,60.3333 131.5,59C 128.833,57.6667 128.833,56.3333 131.5,55C 128.833,53.6667 128.833,52.3333 131.5,51C 128.833,49.6667 128.833,48.3333 131.5,47C 128.833,45.6667 128.833,44.3333 131.5,43C 128.833,41.6667 128.833,40.3333 131.5,39C 128.833,37.6667 128.833,36.3333 131.5,35C 128.833,33.6667 128.833,32.3333 131.5,31C 128.833,29.6667 128.833,28.3333 131.5,27C 128.833,25.6667 128.833,24.3333 131.5,23C 128.833,21.6667 128.833,20.3333 131.5,19C 128.833,17.6667 128.833,16.3333 131.5,15C 128.833,13.6667 128.833,12.3333 131.5,11C 128.833,9.66667 128.833,8.33333 131.5,7C 128.833,5.66667 128.833,4.33333 131.5,3C 129.627,2.04707 129.294,0.880401 130.5,-0.5 Z"/></g>
<g><path style="opacity:1" fill="#231903" d="M 160.5,-0.5 C 171.167,-0.5 181.833,-0.5 192.5,-0.5C 192.264,35.7155 192.264,71.8821 192.5,108C 190.627,108.953 190.294,110.12 191.5,111.5C 181.23,119.764 171.23,128.431 161.5,137.5C 159.069,135.932 159.069,134.432 161.5,133C 161.5,131.667 161.5,130.333 161.5,129C 158.833,127.667 158.833,126.333 161.5,125C 161.5,123.667 161.5,122.333 161.5,121C 158.833,119.667 158.833,118.333 161.5,117C 161.5,115.667 161.5,114.333 161.5,113C 158.833,111.667 158.833,110.333 161.5,109C 161.5,107.667 161.5,106.333 161.5,105C 158.833,103.667 158.833,102.333 161.5,101C 161.5,99.6667 161.5,98.3333 161.5,97C 158.833,95.6667 158.833,94.3333 161.5,93C 161.5,91.6667 161.5,90.3333 161.5,89C 158.833,87.6667 158.833,86.3333 161.5,85C 161.5,83.6667 161.5,82.3333 161.5,81C 158.833,79.6667 158.833,78.3333 161.5,77C 161.5,75.6667 161.5,74.3333 161.5,73C 158.833,71.6667 158.833,70.3333 161.5,69C 161.5,67.6667 161.5,66.3333 161.5,65C 158.833,63.6667 158.833,62.3333 161.5,61C 161.5,59.6667 161.5,58.3333 161.5,57C 158.833,55.6667 158.833,54.3333 161.5,53C 161.5,51.6667 161.5,50.3333 161.5,49C 158.833,47.6667 158.833,46.3333 161.5,45C 161.5,43.6667 161.5,42.3333 161.5,41C 158.833,39.6667 158.833,38.3333 161.5,37C 161.5,35.6667 161.5,34.3333 161.5,33C 158.833,31.6667 158.833,30.3333 161.5,29C 161.5,27.6667 161.5,26.3333 161.5,25C 158.833,23.6667 158.833,22.3333 161.5,21C 161.5,19.6667 161.5,18.3333 161.5,17C 158.833,15.6667 158.833,14.3333 161.5,13C 161.5,11.6667 161.5,10.3333 161.5,9C 158.833,7.66667 158.833,6.33333 161.5,5C 160.926,3.23791 160.593,1.40457 160.5,-0.5 Z"/></g>
<g><path style="opacity:1" fill="#281d04" d="M 192.5,-0.5 C 202.5,-0.5 212.5,-0.5 222.5,-0.5C 222.407,1.40457 222.074,3.23791 221.5,5C 224.167,6.33333 224.167,7.66667 221.5,9C 221.5,10.3333 221.5,11.6667 221.5,13C 224.167,14.3333 224.167,15.6667 221.5,17C 221.5,18.3333 221.5,19.6667 221.5,21C 224.167,22.3333 224.167,23.6667 221.5,25C 221.5,26.3333 221.5,27.6667 221.5,29C 224.167,30.3333 224.167,31.6667 221.5,33C 221.5,34.3333 221.5,35.6667 221.5,37C 224.167,38.3333 224.167,39.6667 221.5,41C 221.5,42.3333 221.5,43.6667 221.5,45C 224.167,46.3333 224.167,47.6667 221.5,49C 221.5,50.3333 221.5,51.6667 221.5,53C 224.167,54.3333 224.167,55.6667 221.5,57C 221.5,58.3333 221.5,59.6667 221.5,61C 224.167,62.3333 224.167,63.6667 221.5,65C 221.5,66.3333 221.5,67.6667 221.5,69C 224.167,70.3333 224.167,71.6667 221.5,73C 221.5,74.3333 221.5,75.6667 221.5,77C 224.167,78.3333 224.167,79.6667 221.5,81C 222.479,82.7785 222.146,84.4452 220.5,86C 220.619,87.1448 220.952,88.3115 221.5,89.5C 211.219,96.4471 201.219,103.78 191.5,111.5C 190.294,110.12 190.627,108.953 192.5,108C 192.264,71.8821 192.264,35.7155 192.5,-0.5 Z"/></g>
<g><path style="opacity:1" fill="#2e2105" d="M 222.5,-0.5 C 232.5,-0.5 242.5,-0.5 252.5,-0.5C 252.929,22.7147 252.929,46.048 252.5,69.5C 242.033,75.9038 231.7,82.5705 221.5,89.5C 220.952,88.3115 220.619,87.1448 220.5,86C 222.146,84.4452 222.479,82.7785 221.5,81C 224.167,79.6667 224.167,78.3333 221.5,77C 221.5,75.6667 221.5,74.3333 221.5,73C 224.167,71.6667 224.167,70.3333 221.5,69C 221.5,67.6667 221.5,66.3333 221.5,65C 224.167,63.6667 224.167,62.3333 221.5,61C 221.5,59.6667 221.5,58.3333 221.5,57C 224.167,55.6667 224.167,54.3333 221.5,53C 221.5,51.6667 221.5,50.3333 221.5,49C 224.167,47.6667 224.167,46.3333 221.5,45C 221.5,43.6667 221.5,42.3333 221.5,41C 224.167,39.6667 224.167,38.3333 221.5,37C 221.5,35.6667 221.5,34.3333 221.5,33C 224.167,31.6667 224.167,30.3333 221.5,29C 221.5,27.6667 221.5,26.3333 221.5,25C 224.167,23.6667 224.167,22.3333 221.5,21C 221.5,19.6667 221.5,18.3333 221.5,17C 224.167,15.6667 224.167,14.3333 221.5,13C 221.5,11.6667 221.5,10.3333 221.5,9C 224.167,7.66667 224.167,6.33333 221.5,5C 222.074,3.23791 222.407,1.40457 222.5,-0.5 Z"/></g>
<g><path style="opacity:1" fill="#352606" d="M 252.5,-0.5 C 264.5,-0.5 276.5,-0.5 288.5,-0.5C 287.294,0.880401 287.627,2.04707 289.5,3C 286.833,4.33333 286.833,5.66667 289.5,7C 286.833,8.33333 286.833,9.66667 289.5,11C 286.833,12.3333 286.833,13.6667 289.5,15C 286.833,16.3333 286.833,17.6667 289.5,19C 286.833,20.3333 286.833,21.6667 289.5,23C 286.833,24.3333 286.833,25.6667 289.5,27C 286.833,28.3333 286.833,29.6667 289.5,31C 286.833,32.3333 286.833,33.6667 289.5,35C 286.833,36.3333 286.833,37.6667 289.5,39C 286.833,40.3333 286.833,41.6667 289.5,43C 286.833,44.3333 286.833,45.6667 289.5,47C 287.859,48.129 286.859,49.629 286.5,51.5C 275.167,57.5 263.833,63.5 252.5,69.5C 252.929,46.048 252.929,22.7147 252.5,-0.5 Z"/></g>
<g><path style="opacity:1" fill="#3c2b06" d="M 288.5,-0.5 C 299.167,-0.5 309.833,-0.5 320.5,-0.5C 319.402,11.0489 319.402,22.5489 320.5,34C 319.619,34.7083 318.953,35.5416 318.5,36.5C 307.906,41.4846 297.24,46.4846 286.5,51.5C 286.859,49.629 287.859,48.129 289.5,47C 286.833,45.6667 286.833,44.3333 289.5,43C 286.833,41.6667 286.833,40.3333 289.5,39C 286.833,37.6667 286.833,36.3333 289.5,35C 286.833,33.6667 286.833,32.3333 289.5,31C 286.833,29.6667 286.833,28.3333 289.5,27C 286.833,25.6667 286.833,24.3333 289.5,23C 286.833,21.6667 286.833,20.3333 289.5,19C 286.833,17.6667 286.833,16.3333 289.5,15C 286.833,13.6667 286.833,12.3333 289.5,11C 286.833,9.66667 286.833,8.33333 289.5,7C 286.833,5.66667 286.833,4.33333 289.5,3C 287.627,2.04707 287.294,0.880401 288.5,-0.5 Z"/></g>
<g><path style="opacity:1" fill="#433107" d="M 320.5,-0.5 C 340.5,-0.5 360.5,-0.5 380.5,-0.5C 379.294,0.880401 379.627,2.04707 381.5,3C 378.833,4.33333 378.833,5.66667 381.5,7C 378.833,8.33333 378.833,9.66667 381.5,11C 379.069,12.4318 379.069,13.9318 381.5,15.5C 360.39,21.8701 339.39,28.8701 318.5,36.5C 318.953,35.5416 319.619,34.7083 320.5,34C 319.402,22.5489 319.402,11.0489 320.5,-0.5 Z"/></g>
<g><path style="opacity:1" fill="#513a09" d="M 380.5,-0.5 C 415.167,-0.5 449.833,-0.5 484.5,-0.5C 449.907,2.31954 415.574,7.65287 381.5,15.5C 379.069,13.9318 379.069,12.4318 381.5,11C 378.833,9.66667 378.833,8.33333 381.5,7C 378.833,5.66667 378.833,4.33333 381.5,3C 379.627,2.04707 379.294,0.880401 380.5,-0.5 Z"/></g>
<g><path style="opacity:1" fill="#febc3e" d="M 484.5,-0.5 C 499.167,-0.5 513.833,-0.5 528.5,-0.5C 577.854,1.78267 626.187,10.4493 673.5,25.5C 693.44,32.63 713.106,40.63 732.5,49.5C 742.637,55.0697 752.971,60.403 763.5,65.5C 776.411,73.0706 789.078,81.0706 801.5,89.5C 819.049,102.04 836.049,115.373 852.5,129.5C 866.833,143.167 880.833,157.167 894.5,171.5C 906.197,186.191 917.864,200.858 929.5,215.5C 939.536,230.885 949.203,246.551 958.5,262.5C 970.121,283.075 980.121,304.408 988.5,326.5C 1009.66,381.305 1021.33,437.972 1023.5,496.5C 1023.5,506.167 1023.5,515.833 1023.5,525.5C 1021.25,583.101 1010.25,639.101 990.5,693.5C 981.342,715.488 971.342,737.154 960.5,758.5C 949.508,775.828 938.508,793.162 927.5,810.5C 916.576,824.765 905.243,838.765 893.5,852.5C 884.528,861.807 875.528,871.14 866.5,880.5C 854.981,891.078 843.314,901.411 831.5,911.5C 820.98,918.926 810.647,926.592 800.5,934.5C 788.657,941.586 776.99,948.92 765.5,956.5C 745.039,967.065 724.372,977.065 703.5,986.5C 681.069,994.867 658.402,1002.2 635.5,1008.5C 598.163,1017.04 560.497,1022.04 522.5,1023.5C 509.5,1023.5 496.5,1023.5 483.5,1023.5C 448.799,1020.77 414.466,1015.11 380.5,1006.5C 360.064,1001.06 340.064,994.393 320.5,986.5C 309.746,982.027 299.079,977.36 288.5,972.5C 276.816,966.471 265.15,960.471 253.5,954.5C 242.87,947.513 232.203,940.513 221.5,933.5C 210.885,926.219 200.551,918.552 190.5,910.5C 180.23,902.236 170.23,893.569 160.5,884.5C 151.5,874.833 142.167,865.5 132.5,856.5C 118.675,840.159 105.342,823.492 92.5,806.5C 82.3194,791.468 72.6527,776.134 63.5,760.5C 52.3866,739.611 42.3866,718.277 33.5,696.5C 13.8318,644.155 2.4985,590.155 -0.5,534.5C -0.5,517.167 -0.5,499.833 -0.5,482.5C 3.53152,429.006 14.8649,377.006 33.5,326.5C 42.3866,304.723 52.3866,283.389 63.5,262.5C 73.4306,245.905 83.7639,229.571 94.5,213.5C 106.803,198.191 119.136,182.858 131.5,167.5C 141.887,157.779 151.887,147.779 161.5,137.5C 171.23,128.431 181.23,119.764 191.5,111.5C 201.219,103.78 211.219,96.4471 221.5,89.5C 231.7,82.5705 242.033,75.9038 252.5,69.5C 263.833,63.5 275.167,57.5 286.5,51.5C 297.24,46.4846 307.906,41.4846 318.5,36.5C 339.39,28.8701 360.39,21.8701 381.5,15.5C 415.574,7.65287 449.907,2.31954 484.5,-0.5 Z"/></g>
<g><path style="opacity:1" fill="#7f5c0e" d="M 528.5,-0.5 C 577.167,-0.5 625.833,-0.5 674.5,-0.5C 674.167,8.16667 673.833,16.8333 673.5,25.5C 626.187,10.4493 577.854,1.78267 528.5,-0.5 Z"/></g>
<g><path style="opacity:1" fill="#8b640f" d="M 674.5,-0.5 C 693.833,-0.5 713.167,-0.5 732.5,-0.5C 732.929,16.048 732.929,32.7147 732.5,49.5C 713.106,40.63 693.44,32.63 673.5,25.5C 673.833,16.8333 674.167,8.16667 674.5,-0.5 Z"/></g>
<g><path style="opacity:1" fill="#936a10" d="M 732.5,-0.5 C 743.833,-0.5 755.167,-0.5 766.5,-0.5C 766.264,21.0488 766.264,42.5488 766.5,64C 765.473,64.5133 764.473,65.0133 763.5,65.5C 752.971,60.403 742.637,55.0697 732.5,49.5C 732.929,32.7147 732.929,16.048 732.5,-0.5 Z"/></g>
<g><path style="opacity:1" fill="#996f11" d="M 766.5,-0.5 C 777.833,-0.5 789.167,-0.5 800.5,-0.5C 799.294,0.880401 799.627,2.04707 801.5,3C 798.833,4.33333 798.833,5.66667 801.5,7C 798.833,8.33333 798.833,9.66667 801.5,11C 798.833,12.3333 798.833,13.6667 801.5,15C 798.833,16.3333 798.833,17.6667 801.5,19C 798.833,20.3333 798.833,21.6667 801.5,23C 798.833,24.3333 798.833,25.6667 801.5,27C 798.833,28.3333 798.833,29.6667 801.5,31C 798.833,32.3333 798.833,33.6667 801.5,35C 798.833,36.3333 798.833,37.6667 801.5,39C 798.833,40.3333 798.833,41.6667 801.5,43C 798.833,44.3333 798.833,45.6667 801.5,47C 798.833,48.3333 798.833,49.6667 801.5,51C 798.833,52.3333 798.833,53.6667 801.5,55C 798.833,56.3333 798.833,57.6667 801.5,59C 798.833,60.3333 798.833,61.6667 801.5,63C 798.833,64.3333 798.833,65.6667 801.5,67C 798.833,68.3333 798.833,69.6667 801.5,71C 798.833,72.3333 798.833,73.6667 801.5,75C 798.833,76.3333 798.833,77.6667 801.5,79C 798.833,80.3333 798.833,81.6667 801.5,83C 800.833,83.6667 800.167,84.3333 799.5,85C 801.037,86.1096 801.703,87.6096 801.5,89.5C 789.078,81.0706 776.411,73.0706 763.5,65.5C 764.473,65.0133 765.473,64.5133 766.5,64C 766.264,42.5488 766.264,21.0488 766.5,-0.5 Z"/></g>
<g><path style="opacity:1" fill="#a27612" d="M 800.5,-0.5 C 817.167,-0.5 833.833,-0.5 850.5,-0.5C 851.29,0.794229 852.29,1.9609 853.5,3C 850.833,4.33333 850.833,5.66667 853.5,7C 850.833,8.33333 850.833,9.66667 853.5,11C 850.833,12.3333 850.833,13.6667 853.5,15C 850.833,16.3333 850.833,17.6667 853.5,19C 850.833,20.3333 850.833,21.6667 853.5,23C 850.833,24.3333 850.833,25.6667 853.5,27C 850.833,28.3333 850.833,29.6667 853.5,31C 850.833,32.3333 850.833,33.6667 853.5,35C 850.833,36.3333 850.833,37.6667 853.5,39C 850.833,40.3333 850.833,41.6667 853.5,43C 850.833,44.3333 850.833,45.6667 853.5,47C 850.833,48.3333 850.833,49.6667 853.5,51C 850.833,52.3333 850.833,53.6667 853.5,55C 850.833,56.3333 850.833,57.6667 853.5,59C 850.833,60.3333 850.833,61.6667 853.5,63C 850.833,64.3333 850.833,65.6667 853.5,67C 850.833,68.3333 850.833,69.6667 853.5,71C 850.833,72.3333 850.833,73.6667 853.5,75C 850.833,76.3333 850.833,77.6667 853.5,79C 850.833,80.3333 850.833,81.6667 853.5,83C 850.833,84.3333 850.833,85.6667 853.5,87C 850.833,88.3333 850.833,89.6667 853.5,91C 850.833,92.3333 850.833,93.6667 853.5,95C 850.833,96.3333 850.833,97.6667 853.5,99C 850.833,100.333 850.833,101.667 853.5,103C 850.833,104.333 850.833,105.667 853.5,107C 850.833,108.333 850.833,109.667 853.5,111C 850.833,112.333 850.833,113.667 853.5,115C 850.833,116.333 850.833,117.667 853.5,119C 850.833,120.333 850.833,121.667 853.5,123C 850.833,124.333 850.833,125.667 853.5,127C 852.748,127.671 852.414,128.504 852.5,129.5C 836.049,115.373 819.049,102.04 801.5,89.5C 801.703,87.6096 801.037,86.1096 799.5,85C 800.167,84.3333 800.833,83.6667 801.5,83C 798.833,81.6667 798.833,80.3333 801.5,79C 798.833,77.6667 798.833,76.3333 801.5,75C 798.833,73.6667 798.833,72.3333 801.5,71C 798.833,69.6667 798.833,68.3333 801.5,67C 798.833,65.6667 798.833,64.3333 801.5,63C 798.833,61.6667 798.833,60.3333 801.5,59C 798.833,57.6667 798.833,56.3333 801.5,55C 798.833,53.6667 798.833,52.3333 801.5,51C 798.833,49.6667 798.833,48.3333 801.5,47C 798.833,45.6667 798.833,44.3333 801.5,43C 798.833,41.6667 798.833,40.3333 801.5,39C 798.833,37.6667 798.833,36.3333 801.5,35C 798.833,33.6667 798.833,32.3333 801.5,31C 798.833,29.6667 798.833,28.3333 801.5,27C 798.833,25.6667 798.833,24.3333 801.5,23C 798.833,21.6667 798.833,20.3333 801.5,19C 798.833,17.6667 798.833,16.3333 801.5,15C 798.833,13.6667 798.833,12.3333 801.5,11C 798.833,9.66667 798.833,8.33333 801.5,7C 798.833,5.66667 798.833,4.33333 801.5,3C 799.627,2.04707 799.294,0.880401 800.5,-0.5 Z"/></g>
<g><path style="opacity:1" fill="#ab7c12" d="M 850.5,-0.5 C 865.167,-0.5 879.833,-0.5 894.5,-0.5C 893.596,56.7147 893.596,114.048 894.5,171.5C 880.833,157.167 866.833,143.167 852.5,129.5C 852.414,128.504 852.748,127.671 853.5,127C 850.833,125.667 850.833,124.333 853.5,123C 850.833,121.667 850.833,120.333 853.5,119C 850.833,117.667 850.833,116.333 853.5,115C 850.833,113.667 850.833,112.333 853.5,111C 850.833,109.667 850.833,108.333 853.5,107C 850.833,105.667 850.833,104.333 853.5,103C 850.833,101.667 850.833,100.333 853.5,99C 850.833,97.6667 850.833,96.3333 853.5,95C 850.833,93.6667 850.833,92.3333 853.5,91C 850.833,89.6667 850.833,88.3333 853.5,87C 850.833,85.6667 850.833,84.3333 853.5,83C 850.833,81.6667 850.833,80.3333 853.5,79C 850.833,77.6667 850.833,76.3333 853.5,75C 850.833,73.6667 850.833,72.3333 853.5,71C 850.833,69.6667 850.833,68.3333 853.5,67C 850.833,65.6667 850.833,64.3333 853.5,63C 850.833,61.6667 850.833,60.3333 853.5,59C 850.833,57.6667 850.833,56.3333 853.5,55C 850.833,53.6667 850.833,52.3333 853.5,51C 850.833,49.6667 850.833,48.3333 853.5,47C 850.833,45.6667 850.833,44.3333 853.5,43C 850.833,41.6667 850.833,40.3333 853.5,39C 850.833,37.6667 850.833,36.3333 853.5,35C 850.833,33.6667 850.833,32.3333 853.5,31C 850.833,29.6667 850.833,28.3333 853.5,27C 850.833,25.6667 850.833,24.3333 853.5,23C 850.833,21.6667 850.833,20.3333 853.5,19C 850.833,17.6667 850.833,16.3333 853.5,15C 850.833,13.6667 850.833,12.3333 853.5,11C 850.833,9.66667 850.833,8.33333 853.5,7C 850.833,5.66667 850.833,4.33333 853.5,3C 852.29,1.9609 851.29,0.794229 850.5,-0.5 Z"/></g>
<g><path style="opacity:1" fill="#b28113" d="M 894.5,-0.5 C 905.833,-0.5 917.167,-0.5 928.5,-0.5C 927.294,0.880401 927.627,2.04707 929.5,3C 926.833,4.33333 926.833,5.66667 929.5,7C 926.833,8.33333 926.833,9.66667 929.5,11C 926.833,12.3333 926.833,13.6667 929.5,15C 926.833,16.3333 926.833,17.6667 929.5,19C 926.833,20.3333 926.833,21.6667 929.5,23C 926.833,24.3333 926.833,25.6667 929.5,27C 926.833,28.3333 926.833,29.6667 929.5,31C 926.833,32.3333 926.833,33.6667 929.5,35C 926.833,36.3333 926.833,37.6667 929.5,39C 926.833,40.3333 926.833,41.6667 929.5,43C 926.833,44.3333 926.833,45.6667 929.5,47C 926.833,48.3333 926.833,49.6667 929.5,51C 926.833,52.3333 926.833,53.6667 929.5,55C 926.833,56.3333 926.833,57.6667 929.5,59C 926.833,60.3333 926.833,61.6667 929.5,63C 926.833,64.3333 926.833,65.6667 929.5,67C 926.833,68.3333 926.833,69.6667 929.5,71C 926.833,72.3333 926.833,73.6667 929.5,75C 926.833,76.3333 926.833,77.6667 929.5,79C 926.833,80.3333 926.833,81.6667 929.5,83C 926.833,84.3333 926.833,85.6667 929.5,87C 926.833,88.3333 926.833,89.6667 929.5,91C 926.833,92.3333 926.833,93.6667 929.5,95C 926.833,96.3333 926.833,97.6667 929.5,99C 926.833,100.333 926.833,101.667 929.5,103C 926.833,104.333 926.833,105.667 929.5,107C 926.833,108.333 926.833,109.667 929.5,111C 926.833,112.333 926.833,113.667 929.5,115C 926.833,116.333 926.833,117.667 929.5,119C 926.833,120.333 926.833,121.667 929.5,123C 926.833,124.333 926.833,125.667 929.5,127C 926.833,128.333 926.833,129.667 929.5,131C 926.833,132.333 926.833,133.667 929.5,135C 926.833,136.333 926.833,137.667 929.5,139C 926.833,140.333 926.833,141.667 929.5,143C 926.833,144.333 926.833,145.667 929.5,147C 926.833,148.333 926.833,149.667 929.5,151C 926.833,152.333 926.833,153.667 929.5,155C 926.833,156.333 926.833,157.667 929.5,159C 926.833,160.333 926.833,161.667 929.5,163C 926.833,164.333 926.833,165.667 929.5,167C 926.833,168.333 926.833,169.667 929.5,171C 926.833,172.333 926.833,173.667 929.5,175C 926.833,176.333 926.833,177.667 929.5,179C 926.833,180.333 926.833,181.667 929.5,183C 926.833,184.333 926.833,185.667 929.5,187C 926.833,188.333 926.833,189.667 929.5,191C 926.833,192.333 926.833,193.667 929.5,195C 926.833,196.333 926.833,197.667 929.5,199C 926.833,200.333 926.833,201.667 929.5,203C 926.833,204.333 926.833,205.667 929.5,207C 928.833,207.667 928.167,208.333 927.5,209C 928.455,210.717 929.455,212.384 930.5,214C 929.944,214.383 929.611,214.883 929.5,215.5C 917.864,200.858 906.197,186.191 894.5,171.5C 893.596,114.048 893.596,56.7147 894.5,-0.5 Z"/></g>
<g><path style="opacity:1" fill="#b88514" d="M 928.5,-0.5 C 938.5,-0.5 948.5,-0.5 958.5,-0.5C 959.598,85.7155 959.598,171.882 958.5,258C 960.877,259.47 960.877,260.97 958.5,262.5C 949.203,246.551 939.536,230.885 929.5,215.5C 929.611,214.883 929.944,214.383 930.5,214C 929.455,212.384 928.455,210.717 927.5,209C 928.167,208.333 928.833,207.667 929.5,207C 926.833,205.667 926.833,204.333 929.5,203C 926.833,201.667 926.833,200.333 929.5,199C 926.833,197.667 926.833,196.333 929.5,195C 926.833,193.667 926.833,192.333 929.5,191C 926.833,189.667 926.833,188.333 929.5,187C 926.833,185.667 926.833,184.333 929.5,183C 926.833,181.667 926.833,180.333 929.5,179C 926.833,177.667 926.833,176.333 929.5,175C 926.833,173.667 926.833,172.333 929.5,171C 926.833,169.667 926.833,168.333 929.5,167C 926.833,165.667 926.833,164.333 929.5,163C 926.833,161.667 926.833,160.333 929.5,159C 926.833,157.667 926.833,156.333 929.5,155C 926.833,153.667 926.833,152.333 929.5,151C 926.833,149.667 926.833,148.333 929.5,147C 926.833,145.667 926.833,144.333 929.5,143C 926.833,141.667 926.833,140.333 929.5,139C 926.833,137.667 926.833,136.333 929.5,135C 926.833,133.667 926.833,132.333 929.5,131C 926.833,129.667 926.833,128.333 929.5,127C 926.833,125.667 926.833,124.333 929.5,123C 926.833,121.667 926.833,120.333 929.5,119C 926.833,117.667 926.833,116.333 929.5,115C 926.833,113.667 926.833,112.333 929.5,111C 926.833,109.667 926.833,108.333 929.5,107C 926.833,105.667 926.833,104.333 929.5,103C 926.833,101.667 926.833,100.333 929.5,99C 926.833,97.6667 926.833,96.3333 929.5,95C 926.833,93.6667 926.833,92.3333 929.5,91C 926.833,89.6667 926.833,88.3333 929.5,87C 926.833,85.6667 926.833,84.3333 929.5,83C 926.833,81.6667 926.833,80.3333 929.5,79C 926.833,77.6667 926.833,76.3333 929.5,75C 926.833,73.6667 926.833,72.3333 929.5,71C 926.833,69.6667 926.833,68.3333 929.5,67C 926.833,65.6667 926.833,64.3333 929.5,63C 926.833,61.6667 926.833,60.3333 929.5,59C 926.833,57.6667 926.833,56.3333 929.5,55C 926.833,53.6667 926.833,52.3333 929.5,51C 926.833,49.6667 926.833,48.3333 929.5,47C 926.833,45.6667 926.833,44.3333 929.5,43C 926.833,41.6667 926.833,40.3333 929.5,39C 926.833,37.6667 926.833,36.3333 929.5,35C 926.833,33.6667 926.833,32.3333 929.5,31C 926.833,29.6667 926.833,28.3333 929.5,27C 926.833,25.6667 926.833,24.3333 929.5,23C 926.833,21.6667 926.833,20.3333 929.5,19C 926.833,17.6667 926.833,16.3333 929.5,15C 926.833,13.6667 926.833,12.3333 929.5,11C 926.833,9.66667 926.833,8.33333 929.5,7C 926.833,5.66667 926.833,4.33333 929.5,3C 927.627,2.04707 927.294,0.880401 928.5,-0.5 Z"/></g>
<g><path style="opacity:1" fill="#be8a15" d="M 958.5,-0.5 C 969.167,-0.5 979.833,-0.5 990.5,-0.5C 991.706,0.880401 991.373,2.04707 989.5,3C 992.167,4.33333 992.167,5.66667 989.5,7C 992.167,8.33333 992.167,9.66667 989.5,11C 992.167,12.3333 992.167,13.6667 989.5,15C 992.167,16.3333 992.167,17.6667 989.5,19C 992.167,20.3333 992.167,21.6667 989.5,23C 992.167,24.3333 992.167,25.6667 989.5,27C 992.167,28.3333 992.167,29.6667 989.5,31C 992.167,32.3333 992.167,33.6667 989.5,35C 992.167,36.3333 992.167,37.6667 989.5,39C 992.167,40.3333 992.167,41.6667 989.5,43C 992.167,44.3333 992.167,45.6667 989.5,47C 992.167,48.3333 992.167,49.6667 989.5,51C 992.167,52.3333 992.167,53.6667 989.5,55C 992.167,56.3333 992.167,57.6667 989.5,59C 992.167,60.3333 992.167,61.6667 989.5,63C 992.167,64.3333 992.167,65.6667 989.5,67C 992.167,68.3333 992.167,69.6667 989.5,71C 992.167,72.3333 992.167,73.6667 989.5,75C 992.167,76.3333 992.167,77.6667 989.5,79C 992.167,80.3333 992.167,81.6667 989.5,83C 992.167,84.3333 992.167,85.6667 989.5,87C 992.167,88.3333 992.167,89.6667 989.5,91C 992.167,92.3333 992.167,93.6667 989.5,95C 992.167,96.3333 992.167,97.6667 989.5,99C 992.167,100.333 992.167,101.667 989.5,103C 992.167,104.333 992.167,105.667 989.5,107C 992.167,108.333 992.167,109.667 989.5,111C 992.167,112.333 992.167,113.667 989.5,115C 992.167,116.333 992.167,117.667 989.5,119C 992.167,120.333 992.167,121.667 989.5,123C 992.167,124.333 992.167,125.667 989.5,127C 992.167,128.333 992.167,129.667 989.5,131C 992.167,132.333 992.167,133.667 989.5,135C 992.167,136.333 992.167,137.667 989.5,139C 992.167,140.333 992.167,141.667 989.5,143C 992.167,144.333 992.167,145.667 989.5,147C 992.167,148.333 992.167,149.667 989.5,151C 992.167,152.333 992.167,153.667 989.5,155C 992.167,156.333 992.167,157.667 989.5,159C 992.167,160.333 992.167,161.667 989.5,163C 992.167,164.333 992.167,165.667 989.5,167C 992.167,168.333 992.167,169.667 989.5,171C 992.167,172.333 992.167,173.667 989.5,175C 992.167,176.333 992.167,177.667 989.5,179C 992.167,180.333 992.167,181.667 989.5,183C 992.167,184.333 992.167,185.667 989.5,187C 992.167,188.333 992.167,189.667 989.5,191C 992.167,192.333 992.167,193.667 989.5,195C 992.167,196.333 992.167,197.667 989.5,199C 992.167,200.333 992.167,201.667 989.5,203C 992.167,204.333 992.167,205.667 989.5,207C 992.167,208.333 992.167,209.667 989.5,211C 992.167,212.333 992.167,213.667 989.5,215C 992.167,216.333 992.167,217.667 989.5,219C 992.167,220.333 992.167,221.667 989.5,223C 992.167,224.333 992.167,225.667 989.5,227C 992.167,228.333 992.167,229.667 989.5,231C 992.167,232.333 992.167,233.667 989.5,235C 992.167,236.333 992.167,237.667 989.5,239C 992.167,240.333 992.167,241.667 989.5,243C 992.167,244.333 992.167,245.667 989.5,247C 992.167,248.333 992.167,249.667 989.5,251C 990.5,252 991.5,253 992.5,254C 989.526,255.506 989.193,257.172 991.5,259C 988.833,260.333 988.833,261.667 991.5,263C 988.833,264.333 988.833,265.667 991.5,267C 988.833,268.333 988.833,269.667 991.5,271C 988.833,272.333 988.833,273.667 991.5,275C 988.833,276.333 988.833,277.667 991.5,279C 988.833,280.333 988.833,281.667 991.5,283C 988.833,284.333 988.833,285.667 991.5,287C 988.833,288.333 988.833,289.667 991.5,291C 988.833,292.333 988.833,293.667 991.5,295C 988.833,296.333 988.833,297.667 991.5,299C 988.833,300.333 988.833,301.667 991.5,303C 988.833,304.333 988.833,305.667 991.5,307C 988.833,308.333 988.833,309.667 991.5,311C 988.833,312.333 988.833,313.667 991.5,315C 988.833,316.333 988.833,317.667 991.5,319C 988.833,320.333 988.833,321.667 991.5,323C 990.364,324.145 989.364,325.312 988.5,326.5C 980.121,304.408 970.121,283.075 958.5,262.5C 960.877,260.97 960.877,259.47 958.5,258C 959.598,171.882 959.598,85.7155 958.5,-0.5 Z"/></g>
<g><path style="opacity:1" fill="#c48e15" d="M 990.5,-0.5 C 1001.5,-0.5 1012.5,-0.5 1023.5,-0.5C 1023.5,165.167 1023.5,330.833 1023.5,496.5C 1021.33,437.972 1009.66,381.305 988.5,326.5C 989.364,325.312 990.364,324.145 991.5,323C 988.833,321.667 988.833,320.333 991.5,319C 988.833,317.667 988.833,316.333 991.5,315C 988.833,313.667 988.833,312.333 991.5,311C 988.833,309.667 988.833,308.333 991.5,307C 988.833,305.667 988.833,304.333 991.5,303C 988.833,301.667 988.833,300.333 991.5,299C 988.833,297.667 988.833,296.333 991.5,295C 988.833,293.667 988.833,292.333 991.5,291C 988.833,289.667 988.833,288.333 991.5,287C 988.833,285.667 988.833,284.333 991.5,283C 988.833,281.667 988.833,280.333 991.5,279C 988.833,277.667 988.833,276.333 991.5,275C 988.833,273.667 988.833,272.333 991.5,271C 988.833,269.667 988.833,268.333 991.5,267C 988.833,265.667 988.833,264.333 991.5,263C 988.833,261.667 988.833,260.333 991.5,259C 989.193,257.172 989.526,255.506 992.5,254C 991.5,253 990.5,252 989.5,251C 992.167,249.667 992.167,248.333 989.5,247C 992.167,245.667 992.167,244.333 989.5,243C 992.167,241.667 992.167,240.333 989.5,239C 992.167,237.667 992.167,236.333 989.5,235C 992.167,233.667 992.167,232.333 989.5,231C 992.167,229.667 992.167,228.333 989.5,227C 992.167,225.667 992.167,224.333 989.5,223C 992.167,221.667 992.167,220.333 989.5,219C 992.167,217.667 992.167,216.333 989.5,215C 992.167,213.667 992.167,212.333 989.5,211C 992.167,209.667 992.167,208.333 989.5,207C 992.167,205.667 992.167,204.333 989.5,203C 992.167,201.667 992.167,200.333 989.5,199C 992.167,197.667 992.167,196.333 989.5,195C 992.167,193.667 992.167,192.333 989.5,191C 992.167,189.667 992.167,188.333 989.5,187C 992.167,185.667 992.167,184.333 989.5,183C 992.167,181.667 992.167,180.333 989.5,179C 992.167,177.667 992.167,176.333 989.5,175C 992.167,173.667 992.167,172.333 989.5,171C 992.167,169.667 992.167,168.333 989.5,167C 992.167,165.667 992.167,164.333 989.5,163C 992.167,161.667 992.167,160.333 989.5,159C 992.167,157.667 992.167,156.333 989.5,155C 992.167,153.667 992.167,152.333 989.5,151C 992.167,149.667 992.167,148.333 989.5,147C 992.167,145.667 992.167,144.333 989.5,143C 992.167,141.667 992.167,140.333 989.5,139C 992.167,137.667 992.167,136.333 989.5,135C 992.167,133.667 992.167,132.333 989.5,131C 992.167,129.667 992.167,128.333 989.5,127C 992.167,125.667 992.167,124.333 989.5,123C 992.167,121.667 992.167,120.333 989.5,119C 992.167,117.667 992.167,116.333 989.5,115C 992.167,113.667 992.167,112.333 989.5,111C 992.167,109.667 992.167,108.333 989.5,107C 992.167,105.667 992.167,104.333 989.5,103C 992.167,101.667 992.167,100.333 989.5,99C 992.167,97.6667 992.167,96.3333 989.5,95C 992.167,93.6667 992.167,92.3333 989.5,91C 992.167,89.6667 992.167,88.3333 989.5,87C 992.167,85.6667 992.167,84.3333 989.5,83C 992.167,81.6667 992.167,80.3333 989.5,79C 992.167,77.6667 992.167,76.3333 989.5,75C 992.167,73.6667 992.167,72.3333 989.5,71C 992.167,69.6667 992.167,68.3333 989.5,67C 992.167,65.6667 992.167,64.3333 989.5,63C 992.167,61.6667 992.167,60.3333 989.5,59C 992.167,57.6667 992.167,56.3333 989.5,55C 992.167,53.6667 992.167,52.3333 989.5,51C 992.167,49.6667 992.167,48.3333 989.5,47C 992.167,45.6667 992.167,44.3333 989.5,43C 992.167,41.6667 992.167,40.3333 989.5,39C 992.167,37.6667 992.167,36.3333 989.5,35C 992.167,33.6667 992.167,32.3333 989.5,31C 992.167,29.6667 992.167,28.3333 989.5,27C 992.167,25.6667 992.167,24.3333 989.5,23C 992.167,21.6667 992.167,20.3333 989.5,19C 992.167,17.6667 992.167,16.3333 989.5,15C 992.167,13.6667 992.167,12.3333 989.5,11C 992.167,9.66667 992.167,8.33333 989.5,7C 992.167,5.66667 992.167,4.33333 989.5,3C 991.373,2.04707 991.706,0.880401 990.5,-0.5 Z"/></g>
<g><path style="opacity:1" fill="#000000" d="M 486.5,69.5 C 626.643,65.242 744.477,113.909 840,215.5C 929.862,318.875 966.196,438.875 949,575.5C 926.127,710.183 857.627,814.35 743.5,888C 634.06,952.223 517.727,968.89 394.5,938C 283.541,905.474 197.041,840.64 135,743.5C 64.1878,622.594 50.8544,495.594 95,362.5C 138.418,247.415 215.584,163.248 326.5,110C 377.471,86.7902 430.804,73.2902 486.5,69.5 Z"/></g>
<g><path style="opacity:1" fill="#fefefe" d="M 302.5,133.5 C 327.3,146.734 351.967,160.234 376.5,174C 338.861,265.759 301.694,357.592 265,449.5C 319.833,367.333 374.667,285.167 429.5,203C 432.947,203.712 436.281,205.045 439.5,207C 461.029,218.595 482.363,230.429 503.5,242.5C 418.892,363.585 333.392,483.919 247,603.5C 212.436,585.135 177.936,566.635 143.5,548C 142.941,547.275 142.608,546.442 142.5,545.5C 195.843,408.15 249.177,270.817 302.5,133.5 Z"/></g>
<g><path style="opacity:1" fill="#fefefe" d="M 551.5,283.5 C 593.11,284.199 628.61,299.199 658,328.5C 679.643,354.038 685.976,383.038 677,415.5C 673.176,428.303 668.176,440.636 662,452.5C 628.667,514.5 595.333,576.5 562,638.5C 551.288,658.734 537.121,676.234 519.5,691C 486.519,713.931 451.852,716.598 415.5,699C 357.259,670.649 338.092,625.483 358,563.5C 361.945,553.666 366.279,543.999 371,534.5C 404.333,472.5 437.667,410.5 471,348.5C 481.898,327.935 496.731,310.769 515.5,297C 526.747,290.199 538.747,285.699 551.5,283.5 Z"/></g>
<g><path style="opacity:1" fill="#010101" d="M 566.5,369.5 C 589.41,369.578 596.577,380.245 588,401.5C 551.588,469.992 514.921,538.326 478,606.5C 474.098,612.459 469.598,617.959 464.5,623C 454.719,627.935 446.219,626.101 439,617.5C 435.354,607.915 436.02,598.581 441,589.5C 477,522.167 513,454.833 549,387.5C 553.359,379.976 559.192,373.976 566.5,369.5 Z"/></g>
<g><path style="opacity:1" fill="#fefefe" d="M 768.5,402.5 C 782.69,401.672 796.69,402.839 810.5,406C 841.144,415.385 866.311,432.552 886,457.5C 897.208,476.078 900.875,496.078 897,517.5C 890.214,548.729 878.714,578.062 862.5,605.5C 837.34,592.087 812.34,578.421 787.5,564.5C 797.07,548.027 805.57,531.027 813,513.5C 815.946,502.227 812.113,494.394 801.5,490C 794.307,486.441 787.307,486.775 780.5,491C 777.667,493.833 774.833,496.667 772,499.5C 734.491,567.848 697.491,636.515 661,705.5C 655.992,715.28 655.326,725.28 659,735.5C 667.383,745.141 677.217,746.974 688.5,741C 694.465,736.041 699.298,730.208 703,723.5C 713.713,703.238 724.547,683.071 735.5,663C 735.355,662.228 735.022,661.561 734.5,661C 727.845,658.007 721.512,654.507 715.5,650.5C 727.426,628.311 739.592,606.311 752,584.5C 783.58,601.038 814.747,618.204 845.5,636C 805.301,710.897 764.968,785.731 724.5,860.5C 714.5,855.167 704.5,849.833 694.5,844.5C 694.167,843.333 693.833,842.167 693.5,841C 695.521,829.242 696.855,817.408 697.5,805.5C 689.439,809.19 681.106,812.356 672.5,815C 657.215,818.562 642.215,817.562 627.5,812C 574.997,789.573 556.83,750.74 573,695.5C 576.076,685.27 579.743,675.27 584,665.5C 619.491,597.849 655.491,530.516 692,463.5C 702.983,444.514 717.483,428.68 735.5,416C 745.768,409.418 756.768,404.918 768.5,402.5 Z"/></g>
<g><path style="opacity:1" fill="#030200" d="M -0.5,534.5 C 2.4985,590.155 13.8318,644.155 33.5,696.5C 31.0688,698.068 31.0688,699.568 33.5,701C 33.5,702.333 33.5,703.667 33.5,705C 30.8333,706.333 30.8333,707.667 33.5,709C 33.5,710.333 33.5,711.667 33.5,713C 30.8333,714.333 30.8333,715.667 33.5,717C 33.5,718.333 33.5,719.667 33.5,721C 30.8333,722.333 30.8333,723.667 33.5,725C 33.5,726.333 33.5,727.667 33.5,729C 30.8333,730.333 30.8333,731.667 33.5,733C 33.5,734.333 33.5,735.667 33.5,737C 30.8333,738.333 30.8333,739.667 33.5,741C 33.5,742.333 33.5,743.667 33.5,745C 30.8333,746.333 30.8333,747.667 33.5,749C 33.5,750.333 33.5,751.667 33.5,753C 30.8333,754.333 30.8333,755.667 33.5,757C 32.1667,760.333 32.1667,763.667 33.5,767C 30.8333,768.333 30.8333,769.667 33.5,771C 33.5,772.333 33.5,773.667 33.5,775C 30.8333,776.333 30.8333,777.667 33.5,779C 33.5,780.333 33.5,781.667 33.5,783C 30.8333,784.333 30.8333,785.667 33.5,787C 33.5,788.333 33.5,789.667 33.5,791C 30.8333,792.333 30.8333,793.667 33.5,795C 33.5,796.333 33.5,797.667 33.5,799C 30.8333,800.333 30.8333,801.667 33.5,803C 33.5,804.333 33.5,805.667 33.5,807C 30.8333,808.333 30.8333,809.667 33.5,811C 33.5,812.333 33.5,813.667 33.5,815C 30.8333,816.333 30.8333,817.667 33.5,819C 33.5,820.333 33.5,821.667 33.5,823C 30.8333,824.333 30.8333,825.667 33.5,827C 33.5,828.333 33.5,829.667 33.5,831C 30.8333,832.333 30.8333,833.667 33.5,835C 33.5,836.333 33.5,837.667 33.5,839C 30.8333,840.333 30.8333,841.667 33.5,843C 33.5,844.333 33.5,845.667 33.5,847C 30.8333,848.333 30.8333,849.667 33.5,851C 33.5,852.333 33.5,853.667 33.5,855C 30.8333,856.333 30.8333,857.667 33.5,859C 33.5,860.333 33.5,861.667 33.5,863C 30.8333,864.333 30.8333,865.667 33.5,867C 33.5,868.333 33.5,869.667 33.5,871C 30.8333,872.333 30.8333,873.667 33.5,875C 33.5,876.333 33.5,877.667 33.5,879C 30.8333,880.333 30.8333,881.667 33.5,883C 33.5,884.333 33.5,885.667 33.5,887C 30.8333,888.333 30.8333,889.667 33.5,891C 33.5,892.333 33.5,893.667 33.5,895C 30.8333,896.333 30.8333,897.667 33.5,899C 33.5,900.333 33.5,901.667 33.5,903C 30.8333,904.333 30.8333,905.667 33.5,907C 33.5,908.333 33.5,909.667 33.5,911C 30.8333,912.333 30.8333,913.667 33.5,915C 33.5,916.333 33.5,917.667 33.5,919C 30.8333,920.333 30.8333,921.667 33.5,923C 33.5,924.333 33.5,925.667 33.5,927C 30.8333,928.333 30.8333,929.667 33.5,931C 33.5,932.333 33.5,933.667 33.5,935C 30.8333,936.333 30.8333,937.667 33.5,939C 33.5,940.333 33.5,941.667 33.5,943C 30.8333,944.333 30.8333,945.667 33.5,947C 33.5,948.333 33.5,949.667 33.5,951C 30.8333,952.333 30.8333,953.667 33.5,955C 33.5,956.333 33.5,957.667 33.5,959C 30.8333,960.333 30.8333,961.667 33.5,963C 33.5,964.333 33.5,965.667 33.5,967C 30.8333,968.333 30.8333,969.667 33.5,971C 33.5,972.333 33.5,973.667 33.5,975C 30.8333,976.333 30.8333,977.667 33.5,979C 33.5,980.333 33.5,981.667 33.5,983C 30.8333,984.333 30.8333,985.667 33.5,987C 33.5,988.333 33.5,989.667 33.5,991C 30.8333,992.333 30.8333,993.667 33.5,995C 33.5,996.333 33.5,997.667 33.5,999C 30.8333,1000.33 30.8333,1001.67 33.5,1003C 33.5,1004.33 33.5,1005.67 33.5,1007C 30.8333,1008.33 30.8333,1009.67 33.5,1011C 32.1667,1014.33 32.1667,1017.67 33.5,1021C 32.6195,1021.71 31.9528,1022.54 31.5,1023.5C 20.8333,1023.5 10.1667,1023.5 -0.5,1023.5C -0.5,860.5 -0.5,697.5 -0.5,534.5 Z"/></g>
<g><path style="opacity:1" fill="#c48e15" d="M 1023.5,525.5 C 1023.5,691.5 1023.5,857.5 1023.5,1023.5C 1012.17,1023.5 1000.83,1023.5 989.5,1023.5C 991.931,1021.93 991.931,1020.43 989.5,1019C 990.5,1018 991.5,1017 992.5,1016C 989.526,1014.49 989.193,1012.83 991.5,1011C 988.833,1009.67 988.833,1008.33 991.5,1007C 988.833,1005.67 988.833,1004.33 991.5,1003C 988.833,1001.67 988.833,1000.33 991.5,999C 988.833,997.667 988.833,996.333 991.5,995C 988.833,993.667 988.833,992.333 991.5,991C 988.833,989.667 988.833,988.333 991.5,987C 988.833,985.667 988.833,984.333 991.5,983C 988.833,981.667 988.833,980.333 991.5,979C 988.833,977.667 988.833,976.333 991.5,975C 988.833,973.667 988.833,972.333 991.5,971C 988.833,969.667 988.833,968.333 991.5,967C 988.833,965.667 988.833,964.333 991.5,963C 988.833,961.667 988.833,960.333 991.5,959C 988.833,957.667 988.833,956.333 991.5,955C 988.833,953.667 988.833,952.333 991.5,951C 988.833,949.667 988.833,948.333 991.5,947C 988.833,945.667 988.833,944.333 991.5,943C 988.833,941.667 988.833,940.333 991.5,939C 988.833,937.667 988.833,936.333 991.5,935C 988.833,933.667 988.833,932.333 991.5,931C 988.833,929.667 988.833,928.333 991.5,927C 988.833,925.667 988.833,924.333 991.5,923C 988.833,921.667 988.833,920.333 991.5,919C 988.833,917.667 988.833,916.333 991.5,915C 988.833,913.667 988.833,912.333 991.5,911C 988.833,909.667 988.833,908.333 991.5,907C 988.833,905.667 988.833,904.333 991.5,903C 988.833,901.667 988.833,900.333 991.5,899C 988.833,897.667 988.833,896.333 991.5,895C 988.833,893.667 988.833,892.333 991.5,891C 988.833,889.667 988.833,888.333 991.5,887C 988.833,885.667 988.833,884.333 991.5,883C 988.833,881.667 988.833,880.333 991.5,879C 988.833,877.667 988.833,876.333 991.5,875C 988.833,873.667 988.833,872.333 991.5,871C 988.833,869.667 988.833,868.333 991.5,867C 988.833,865.667 988.833,864.333 991.5,863C 988.833,861.667 988.833,860.333 991.5,859C 988.833,857.667 988.833,856.333 991.5,855C 988.833,853.667 988.833,852.333 991.5,851C 988.833,849.667 988.833,848.333 991.5,847C 988.833,845.667 988.833,844.333 991.5,843C 988.833,841.667 988.833,840.333 991.5,839C 988.833,837.667 988.833,836.333 991.5,835C 988.833,833.667 988.833,832.333 991.5,831C 988.833,829.667 988.833,828.333 991.5,827C 988.833,825.667 988.833,824.333 991.5,823C 988.833,821.667 988.833,820.333 991.5,819C 988.833,817.667 988.833,816.333 991.5,815C 988.833,813.667 988.833,812.333 991.5,811C 988.833,809.667 988.833,808.333 991.5,807C 988.833,805.667 988.833,804.333 991.5,803C 988.833,801.667 988.833,800.333 991.5,799C 988.833,797.667 988.833,796.333 991.5,795C 988.833,793.667 988.833,792.333 991.5,791C 988.833,789.667 988.833,788.333 991.5,787C 988.833,785.667 988.833,784.333 991.5,783C 988.833,781.667 988.833,780.333 991.5,779C 988.833,777.667 988.833,776.333 991.5,775C 988.833,773.667 988.833,772.333 991.5,771C 988.833,769.667 988.833,768.333 991.5,767C 989.193,765.172 989.526,763.506 992.5,762C 989.526,760.494 989.193,758.828 991.5,757C 988.833,755.667 988.833,754.333 991.5,753C 988.833,751.667 988.833,750.333 991.5,749C 988.833,747.667 988.833,746.333 991.5,745C 988.833,743.667 988.833,742.333 991.5,741C 988.833,739.667 988.833,738.333 991.5,737C 988.833,735.667 988.833,734.333 991.5,733C 988.833,731.667 988.833,730.333 991.5,729C 988.833,727.667 988.833,726.333 991.5,725C 988.833,723.667 988.833,722.333 991.5,721C 988.833,719.667 988.833,718.333 991.5,717C 988.833,715.667 988.833,714.333 991.5,713C 988.833,711.667 988.833,710.333 991.5,709C 988.833,707.667 988.833,706.333 991.5,705C 988.833,703.667 988.833,702.333 991.5,701C 988.833,699.667 988.833,698.333 991.5,697C 990.663,695.989 990.33,694.822 990.5,693.5C 1010.25,639.101 1021.25,583.101 1023.5,525.5 Z"/></g>
<g><path style="opacity:1" fill="#0a0701" d="M 33.5,696.5 C 42.3866,718.277 52.3866,739.611 63.5,760.5C 64.3834,848.392 64.3834,936.058 63.5,1023.5C 52.8333,1023.5 42.1667,1023.5 31.5,1023.5C 31.9528,1022.54 32.6195,1021.71 33.5,1021C 32.1667,1017.67 32.1667,1014.33 33.5,1011C 30.8333,1009.67 30.8333,1008.33 33.5,1007C 33.5,1005.67 33.5,1004.33 33.5,1003C 30.8333,1001.67 30.8333,1000.33 33.5,999C 33.5,997.667 33.5,996.333 33.5,995C 30.8333,993.667 30.8333,992.333 33.5,991C 33.5,989.667 33.5,988.333 33.5,987C 30.8333,985.667 30.8333,984.333 33.5,983C 33.5,981.667 33.5,980.333 33.5,979C 30.8333,977.667 30.8333,976.333 33.5,975C 33.5,973.667 33.5,972.333 33.5,971C 30.8333,969.667 30.8333,968.333 33.5,967C 33.5,965.667 33.5,964.333 33.5,963C 30.8333,961.667 30.8333,960.333 33.5,959C 33.5,957.667 33.5,956.333 33.5,955C 30.8333,953.667 30.8333,952.333 33.5,951C 33.5,949.667 33.5,948.333 33.5,947C 30.8333,945.667 30.8333,944.333 33.5,943C 33.5,941.667 33.5,940.333 33.5,939C 30.8333,937.667 30.8333,936.333 33.5,935C 33.5,933.667 33.5,932.333 33.5,931C 30.8333,929.667 30.8333,928.333 33.5,927C 33.5,925.667 33.5,924.333 33.5,923C 30.8333,921.667 30.8333,920.333 33.5,919C 33.5,917.667 33.5,916.333 33.5,915C 30.8333,913.667 30.8333,912.333 33.5,911C 33.5,909.667 33.5,908.333 33.5,907C 30.8333,905.667 30.8333,904.333 33.5,903C 33.5,901.667 33.5,900.333 33.5,899C 30.8333,897.667 30.8333,896.333 33.5,895C 33.5,893.667 33.5,892.333 33.5,891C 30.8333,889.667 30.8333,888.333 33.5,887C 33.5,885.667 33.5,884.333 33.5,883C 30.8333,881.667 30.8333,880.333 33.5,879C 33.5,877.667 33.5,876.333 33.5,875C 30.8333,873.667 30.8333,872.333 33.5,871C 33.5,869.667 33.5,868.333 33.5,867C 30.8333,865.667 30.8333,864.333 33.5,863C 33.5,861.667 33.5,860.333 33.5,859C 30.8333,857.667 30.8333,856.333 33.5,855C 33.5,853.667 33.5,852.333 33.5,851C 30.8333,849.667 30.8333,848.333 33.5,847C 33.5,845.667 33.5,844.333 33.5,843C 30.8333,841.667 30.8333,840.333 33.5,839C 33.5,837.667 33.5,836.333 33.5,835C 30.8333,833.667 30.8333,832.333 33.5,831C 33.5,829.667 33.5,828.333 33.5,827C 30.8333,825.667 30.8333,824.333 33.5,823C 33.5,821.667 33.5,820.333 33.5,819C 30.8333,817.667 30.8333,816.333 33.5,815C 33.5,813.667 33.5,812.333 33.5,811C 30.8333,809.667 30.8333,808.333 33.5,807C 33.5,805.667 33.5,804.333 33.5,803C 30.8333,801.667 30.8333,800.333 33.5,799C 33.5,797.667 33.5,796.333 33.5,795C 30.8333,793.667 30.8333,792.333 33.5,791C 33.5,789.667 33.5,788.333 33.5,787C 30.8333,785.667 30.8333,784.333 33.5,783C 33.5,781.667 33.5,780.333 33.5,779C 30.8333,777.667 30.8333,776.333 33.5,775C 33.5,773.667 33.5,772.333 33.5,771C 30.8333,769.667 30.8333,768.333 33.5,767C 32.1667,763.667 32.1667,760.333 33.5,757C 30.8333,755.667 30.8333,754.333 33.5,753C 33.5,751.667 33.5,750.333 33.5,749C 30.8333,747.667 30.8333,746.333 33.5,745C 33.5,743.667 33.5,742.333 33.5,741C 30.8333,739.667 30.8333,738.333 33.5,737C 33.5,735.667 33.5,734.333 33.5,733C 30.8333,731.667 30.8333,730.333 33.5,729C 33.5,727.667 33.5,726.333 33.5,725C 30.8333,723.667 30.8333,722.333 33.5,721C 33.5,719.667 33.5,718.333 33.5,717C 30.8333,715.667 30.8333,714.333 33.5,713C 33.5,711.667 33.5,710.333 33.5,709C 30.8333,707.667 30.8333,706.333 33.5,705C 33.5,703.667 33.5,702.333 33.5,701C 31.0688,699.568 31.0688,698.068 33.5,696.5 Z"/></g>
<g><path style="opacity:1" fill="#bd8914" d="M 990.5,693.5 C 990.33,694.822 990.663,695.989 991.5,697C 988.833,698.333 988.833,699.667 991.5,701C 988.833,702.333 988.833,703.667 991.5,705C 988.833,706.333 988.833,707.667 991.5,709C 988.833,710.333 988.833,711.667 991.5,713C 988.833,714.333 988.833,715.667 991.5,717C 988.833,718.333 988.833,719.667 991.5,721C 988.833,722.333 988.833,723.667 991.5,725C 988.833,726.333 988.833,727.667 991.5,729C 988.833,730.333 988.833,731.667 991.5,733C 988.833,734.333 988.833,735.667 991.5,737C 988.833,738.333 988.833,739.667 991.5,741C 988.833,742.333 988.833,743.667 991.5,745C 988.833,746.333 988.833,747.667 991.5,749C 988.833,750.333 988.833,751.667 991.5,753C 988.833,754.333 988.833,755.667 991.5,757C 989.193,758.828 989.526,760.494 992.5,762C 989.526,763.506 989.193,765.172 991.5,767C 988.833,768.333 988.833,769.667 991.5,771C 988.833,772.333 988.833,773.667 991.5,775C 988.833,776.333 988.833,777.667 991.5,779C 988.833,780.333 988.833,781.667 991.5,783C 988.833,784.333 988.833,785.667 991.5,787C 988.833,788.333 988.833,789.667 991.5,791C 988.833,792.333 988.833,793.667 991.5,795C 988.833,796.333 988.833,797.667 991.5,799C 988.833,800.333 988.833,801.667 991.5,803C 988.833,804.333 988.833,805.667 991.5,807C 988.833,808.333 988.833,809.667 991.5,811C 988.833,812.333 988.833,813.667 991.5,815C 988.833,816.333 988.833,817.667 991.5,819C 988.833,820.333 988.833,821.667 991.5,823C 988.833,824.333 988.833,825.667 991.5,827C 988.833,828.333 988.833,829.667 991.5,831C 988.833,832.333 988.833,833.667 991.5,835C 988.833,836.333 988.833,837.667 991.5,839C 988.833,840.333 988.833,841.667 991.5,843C 988.833,844.333 988.833,845.667 991.5,847C 988.833,848.333 988.833,849.667 991.5,851C 988.833,852.333 988.833,853.667 991.5,855C 988.833,856.333 988.833,857.667 991.5,859C 988.833,860.333 988.833,861.667 991.5,863C 988.833,864.333 988.833,865.667 991.5,867C 988.833,868.333 988.833,869.667 991.5,871C 988.833,872.333 988.833,873.667 991.5,875C 988.833,876.333 988.833,877.667 991.5,879C 988.833,880.333 988.833,881.667 991.5,883C 988.833,884.333 988.833,885.667 991.5,887C 988.833,888.333 988.833,889.667 991.5,891C 988.833,892.333 988.833,893.667 991.5,895C 988.833,896.333 988.833,897.667 991.5,899C 988.833,900.333 988.833,901.667 991.5,903C 988.833,904.333 988.833,905.667 991.5,907C 988.833,908.333 988.833,909.667 991.5,911C 988.833,912.333 988.833,913.667 991.5,915C 988.833,916.333 988.833,917.667 991.5,919C 988.833,920.333 988.833,921.667 991.5,923C 988.833,924.333 988.833,925.667 991.5,927C 988.833,928.333 988.833,929.667 991.5,931C 988.833,932.333 988.833,933.667 991.5,935C 988.833,936.333 988.833,937.667 991.5,939C 988.833,940.333 988.833,941.667 991.5,943C 988.833,944.333 988.833,945.667 991.5,947C 988.833,948.333 988.833,949.667 991.5,951C 988.833,952.333 988.833,953.667 991.5,955C 988.833,956.333 988.833,957.667 991.5,959C 988.833,960.333 988.833,961.667 991.5,963C 988.833,964.333 988.833,965.667 991.5,967C 988.833,968.333 988.833,969.667 991.5,971C 988.833,972.333 988.833,973.667 991.5,975C 988.833,976.333 988.833,977.667 991.5,979C 988.833,980.333 988.833,981.667 991.5,983C 988.833,984.333 988.833,985.667 991.5,987C 988.833,988.333 988.833,989.667 991.5,991C 988.833,992.333 988.833,993.667 991.5,995C 988.833,996.333 988.833,997.667 991.5,999C 988.833,1000.33 988.833,1001.67 991.5,1003C 988.833,1004.33 988.833,1005.67 991.5,1007C 988.833,1008.33 988.833,1009.67 991.5,1011C 989.193,1012.83 989.526,1014.49 992.5,1016C 991.5,1017 990.5,1018 989.5,1019C 991.931,1020.43 991.931,1021.93 989.5,1023.5C 979.5,1023.5 969.5,1023.5 959.5,1023.5C 959.403,937.617 959.069,851.784 958.5,766C 959.167,765.333 959.833,764.667 960.5,764C 959.834,762.34 959.834,760.506 960.5,758.5C 971.342,737.154 981.342,715.488 990.5,693.5 Z"/></g>
<g><path style="opacity:1" fill="#0f0b01" d="M 63.5,760.5 C 72.6527,776.134 82.3194,791.468 92.5,806.5C 92.4841,808.629 93.1508,810.462 94.5,812C 93.5209,813.779 93.8542,815.445 95.5,817C 94.8333,817.667 94.1667,818.333 93.5,819C 93.5,820.333 93.5,821.667 93.5,823C 96.1667,824.333 96.1667,825.667 93.5,827C 93.5,828.333 93.5,829.667 93.5,831C 96.1667,832.333 96.1667,833.667 93.5,835C 93.5,836.333 93.5,837.667 93.5,839C 96.1667,840.333 96.1667,841.667 93.5,843C 93.5,844.333 93.5,845.667 93.5,847C 96.1667,848.333 96.1667,849.667 93.5,851C 93.5,852.333 93.5,853.667 93.5,855C 96.1667,856.333 96.1667,857.667 93.5,859C 93.5,860.333 93.5,861.667 93.5,863C 96.1667,864.333 96.1667,865.667 93.5,867C 93.5,868.333 93.5,869.667 93.5,871C 96.1667,872.333 96.1667,873.667 93.5,875C 93.5,876.333 93.5,877.667 93.5,879C 96.1667,880.333 96.1667,881.667 93.5,883C 93.5,884.333 93.5,885.667 93.5,887C 96.1667,888.333 96.1667,889.667 93.5,891C 93.5,892.333 93.5,893.667 93.5,895C 96.1667,896.333 96.1667,897.667 93.5,899C 93.5,900.333 93.5,901.667 93.5,903C 96.1667,904.333 96.1667,905.667 93.5,907C 93.5,908.333 93.5,909.667 93.5,911C 96.1667,912.333 96.1667,913.667 93.5,915C 93.5,916.333 93.5,917.667 93.5,919C 96.1667,920.333 96.1667,921.667 93.5,923C 93.5,924.333 93.5,925.667 93.5,927C 96.1667,928.333 96.1667,929.667 93.5,931C 93.5,932.333 93.5,933.667 93.5,935C 96.1667,936.333 96.1667,937.667 93.5,939C 93.5,940.333 93.5,941.667 93.5,943C 96.1667,944.333 96.1667,945.667 93.5,947C 93.5,948.333 93.5,949.667 93.5,951C 96.1667,952.333 96.1667,953.667 93.5,955C 93.5,956.333 93.5,957.667 93.5,959C 96.1667,960.333 96.1667,961.667 93.5,963C 93.5,964.333 93.5,965.667 93.5,967C 96.1667,968.333 96.1667,969.667 93.5,971C 93.5,972.333 93.5,973.667 93.5,975C 96.1667,976.333 96.1667,977.667 93.5,979C 93.5,980.333 93.5,981.667 93.5,983C 96.1667,984.333 96.1667,985.667 93.5,987C 93.5,988.333 93.5,989.667 93.5,991C 96.1667,992.333 96.1667,993.667 93.5,995C 93.5,996.333 93.5,997.667 93.5,999C 96.1667,1000.33 96.1667,1001.67 93.5,1003C 93.5,1004.33 93.5,1005.67 93.5,1007C 96.1667,1008.33 96.1667,1009.67 93.5,1011C 94.8333,1014.33 94.8333,1017.67 93.5,1021C 94.3805,1021.71 95.0472,1022.54 95.5,1023.5C 84.8333,1023.5 74.1667,1023.5 63.5,1023.5C 64.3834,936.058 64.3834,848.392 63.5,760.5 Z"/></g>
<g><path style="opacity:1" fill="#b88514" d="M 960.5,758.5 C 959.834,760.506 959.834,762.34 960.5,764C 959.833,764.667 959.167,765.333 958.5,766C 959.069,851.784 959.403,937.617 959.5,1023.5C 949.5,1023.5 939.5,1023.5 929.5,1023.5C 927.069,1021.93 927.069,1020.43 929.5,1019C 928.5,1018 927.5,1017 926.5,1016C 929.474,1014.49 929.807,1012.83 927.5,1011C 930.167,1009.67 930.167,1008.33 927.5,1007C 930.167,1005.67 930.167,1004.33 927.5,1003C 930.167,1001.67 930.167,1000.33 927.5,999C 930.167,997.667 930.167,996.333 927.5,995C 930.167,993.667 930.167,992.333 927.5,991C 930.167,989.667 930.167,988.333 927.5,987C 930.167,985.667 930.167,984.333 927.5,983C 930.167,981.667 930.167,980.333 927.5,979C 930.167,977.667 930.167,976.333 927.5,975C 930.167,973.667 930.167,972.333 927.5,971C 930.167,969.667 930.167,968.333 927.5,967C 930.167,965.667 930.167,964.333 927.5,963C 930.167,961.667 930.167,960.333 927.5,959C 930.167,957.667 930.167,956.333 927.5,955C 930.167,953.667 930.167,952.333 927.5,951C 930.167,949.667 930.167,948.333 927.5,947C 930.167,945.667 930.167,944.333 927.5,943C 930.167,941.667 930.167,940.333 927.5,939C 930.167,937.667 930.167,936.333 927.5,935C 930.167,933.667 930.167,932.333 927.5,931C 930.167,929.667 930.167,928.333 927.5,927C 930.167,925.667 930.167,924.333 927.5,923C 930.167,921.667 930.167,920.333 927.5,919C 930.167,917.667 930.167,916.333 927.5,915C 930.167,913.667 930.167,912.333 927.5,911C 930.167,909.667 930.167,908.333 927.5,907C 930.167,905.667 930.167,904.333 927.5,903C 930.167,901.667 930.167,900.333 927.5,899C 930.167,897.667 930.167,896.333 927.5,895C 930.167,893.667 930.167,892.333 927.5,891C 930.167,889.667 930.167,888.333 927.5,887C 930.167,885.667 930.167,884.333 927.5,883C 930.167,881.667 930.167,880.333 927.5,879C 930.167,877.667 930.167,876.333 927.5,875C 930.167,873.667 930.167,872.333 927.5,871C 930.167,869.667 930.167,868.333 927.5,867C 930.167,865.667 930.167,864.333 927.5,863C 930.167,861.667 930.167,860.333 927.5,859C 930.167,857.667 930.167,856.333 927.5,855C 930.167,853.667 930.167,852.333 927.5,851C 930.167,849.667 930.167,848.333 927.5,847C 930.167,845.667 930.167,844.333 927.5,843C 930.167,841.667 930.167,840.333 927.5,839C 930.167,837.667 930.167,836.333 927.5,835C 930.167,833.667 930.167,832.333 927.5,831C 930.167,829.667 930.167,828.333 927.5,827C 930.167,825.667 930.167,824.333 927.5,823C 930.167,821.667 930.167,820.333 927.5,819C 930.167,817.667 930.167,816.333 927.5,815C 929.931,813.568 929.931,812.068 927.5,810.5C 938.508,793.162 949.508,775.828 960.5,758.5 Z"/></g>
<g><path style="opacity:1" fill="#161002" d="M 92.5,806.5 C 105.342,823.492 118.675,840.159 132.5,856.5C 132.607,858.379 132.107,858.712 131,857.5C 129.176,858.749 129.343,859.915 131.5,861C 128.833,862.333 128.833,863.667 131.5,865C 128.833,866.333 128.833,867.667 131.5,869C 128.833,870.333 128.833,871.667 131.5,873C 128.833,874.333 128.833,875.667 131.5,877C 128.833,878.333 128.833,879.667 131.5,881C 128.833,882.333 128.833,883.667 131.5,885C 128.833,886.333 128.833,887.667 131.5,889C 128.833,890.333 128.833,891.667 131.5,893C 128.833,894.333 128.833,895.667 131.5,897C 128.833,898.333 128.833,899.667 131.5,901C 128.833,902.333 128.833,903.667 131.5,905C 128.833,906.333 128.833,907.667 131.5,909C 128.833,910.333 128.833,911.667 131.5,913C 128.833,914.333 128.833,915.667 131.5,917C 128.833,918.333 128.833,919.667 131.5,921C 128.833,922.333 128.833,923.667 131.5,925C 128.833,926.333 128.833,927.667 131.5,929C 128.833,930.333 128.833,931.667 131.5,933C 128.833,934.333 128.833,935.667 131.5,937C 128.833,938.333 128.833,939.667 131.5,941C 128.833,942.333 128.833,943.667 131.5,945C 128.833,946.333 128.833,947.667 131.5,949C 128.833,950.333 128.833,951.667 131.5,953C 128.833,954.333 128.833,955.667 131.5,957C 128.833,958.333 128.833,959.667 131.5,961C 128.833,962.333 128.833,963.667 131.5,965C 128.833,966.333 128.833,967.667 131.5,969C 128.833,970.333 128.833,971.667 131.5,973C 128.833,974.333 128.833,975.667 131.5,977C 128.833,978.333 128.833,979.667 131.5,981C 128.833,982.333 128.833,983.667 131.5,985C 128.833,986.333 128.833,987.667 131.5,989C 128.833,990.333 128.833,991.667 131.5,993C 128.833,994.333 128.833,995.667 131.5,997C 128.833,998.333 128.833,999.667 131.5,1001C 128.833,1002.33 128.833,1003.67 131.5,1005C 128.833,1006.33 128.833,1007.67 131.5,1009C 128.833,1010.33 128.833,1011.67 131.5,1013C 130.833,1013.67 130.167,1014.33 129.5,1015C 128.939,1016.57 129.606,1017.9 131.5,1019C 129.069,1020.43 129.069,1021.93 131.5,1023.5C 119.5,1023.5 107.5,1023.5 95.5,1023.5C 95.0472,1022.54 94.3805,1021.71 93.5,1021C 94.8333,1017.67 94.8333,1014.33 93.5,1011C 96.1667,1009.67 96.1667,1008.33 93.5,1007C 93.5,1005.67 93.5,1004.33 93.5,1003C 96.1667,1001.67 96.1667,1000.33 93.5,999C 93.5,997.667 93.5,996.333 93.5,995C 96.1667,993.667 96.1667,992.333 93.5,991C 93.5,989.667 93.5,988.333 93.5,987C 96.1667,985.667 96.1667,984.333 93.5,983C 93.5,981.667 93.5,980.333 93.5,979C 96.1667,977.667 96.1667,976.333 93.5,975C 93.5,973.667 93.5,972.333 93.5,971C 96.1667,969.667 96.1667,968.333 93.5,967C 93.5,965.667 93.5,964.333 93.5,963C 96.1667,961.667 96.1667,960.333 93.5,959C 93.5,957.667 93.5,956.333 93.5,955C 96.1667,953.667 96.1667,952.333 93.5,951C 93.5,949.667 93.5,948.333 93.5,947C 96.1667,945.667 96.1667,944.333 93.5,943C 93.5,941.667 93.5,940.333 93.5,939C 96.1667,937.667 96.1667,936.333 93.5,935C 93.5,933.667 93.5,932.333 93.5,931C 96.1667,929.667 96.1667,928.333 93.5,927C 93.5,925.667 93.5,924.333 93.5,923C 96.1667,921.667 96.1667,920.333 93.5,919C 93.5,917.667 93.5,916.333 93.5,915C 96.1667,913.667 96.1667,912.333 93.5,911C 93.5,909.667 93.5,908.333 93.5,907C 96.1667,905.667 96.1667,904.333 93.5,903C 93.5,901.667 93.5,900.333 93.5,899C 96.1667,897.667 96.1667,896.333 93.5,895C 93.5,893.667 93.5,892.333 93.5,891C 96.1667,889.667 96.1667,888.333 93.5,887C 93.5,885.667 93.5,884.333 93.5,883C 96.1667,881.667 96.1667,880.333 93.5,879C 93.5,877.667 93.5,876.333 93.5,875C 96.1667,873.667 96.1667,872.333 93.5,871C 93.5,869.667 93.5,868.333 93.5,867C 96.1667,865.667 96.1667,864.333 93.5,863C 93.5,861.667 93.5,860.333 93.5,859C 96.1667,857.667 96.1667,856.333 93.5,855C 93.5,853.667 93.5,852.333 93.5,851C 96.1667,849.667 96.1667,848.333 93.5,847C 93.5,845.667 93.5,844.333 93.5,843C 96.1667,841.667 96.1667,840.333 93.5,839C 93.5,837.667 93.5,836.333 93.5,835C 96.1667,833.667 96.1667,832.333 93.5,831C 93.5,829.667 93.5,828.333 93.5,827C 96.1667,825.667 96.1667,824.333 93.5,823C 93.5,821.667 93.5,820.333 93.5,819C 94.1667,818.333 94.8333,817.667 95.5,817C 93.8542,815.445 93.5209,813.779 94.5,812C 93.1508,810.462 92.4841,808.629 92.5,806.5 Z"/></g>
<g><path style="opacity:1" fill="#b28113" d="M 927.5,810.5 C 929.931,812.068 929.931,813.568 927.5,815C 930.167,816.333 930.167,817.667 927.5,819C 930.167,820.333 930.167,821.667 927.5,823C 930.167,824.333 930.167,825.667 927.5,827C 930.167,828.333 930.167,829.667 927.5,831C 930.167,832.333 930.167,833.667 927.5,835C 930.167,836.333 930.167,837.667 927.5,839C 930.167,840.333 930.167,841.667 927.5,843C 930.167,844.333 930.167,845.667 927.5,847C 930.167,848.333 930.167,849.667 927.5,851C 930.167,852.333 930.167,853.667 927.5,855C 930.167,856.333 930.167,857.667 927.5,859C 930.167,860.333 930.167,861.667 927.5,863C 930.167,864.333 930.167,865.667 927.5,867C 930.167,868.333 930.167,869.667 927.5,871C 930.167,872.333 930.167,873.667 927.5,875C 930.167,876.333 930.167,877.667 927.5,879C 930.167,880.333 930.167,881.667 927.5,883C 930.167,884.333 930.167,885.667 927.5,887C 930.167,888.333 930.167,889.667 927.5,891C 930.167,892.333 930.167,893.667 927.5,895C 930.167,896.333 930.167,897.667 927.5,899C 930.167,900.333 930.167,901.667 927.5,903C 930.167,904.333 930.167,905.667 927.5,907C 930.167,908.333 930.167,909.667 927.5,911C 930.167,912.333 930.167,913.667 927.5,915C 930.167,916.333 930.167,917.667 927.5,919C 930.167,920.333 930.167,921.667 927.5,923C 930.167,924.333 930.167,925.667 927.5,927C 930.167,928.333 930.167,929.667 927.5,931C 930.167,932.333 930.167,933.667 927.5,935C 930.167,936.333 930.167,937.667 927.5,939C 930.167,940.333 930.167,941.667 927.5,943C 930.167,944.333 930.167,945.667 927.5,947C 930.167,948.333 930.167,949.667 927.5,951C 930.167,952.333 930.167,953.667 927.5,955C 930.167,956.333 930.167,957.667 927.5,959C 930.167,960.333 930.167,961.667 927.5,963C 930.167,964.333 930.167,965.667 927.5,967C 930.167,968.333 930.167,969.667 927.5,971C 930.167,972.333 930.167,973.667 927.5,975C 930.167,976.333 930.167,977.667 927.5,979C 930.167,980.333 930.167,981.667 927.5,983C 930.167,984.333 930.167,985.667 927.5,987C 930.167,988.333 930.167,989.667 927.5,991C 930.167,992.333 930.167,993.667 927.5,995C 930.167,996.333 930.167,997.667 927.5,999C 930.167,1000.33 930.167,1001.67 927.5,1003C 930.167,1004.33 930.167,1005.67 927.5,1007C 930.167,1008.33 930.167,1009.67 927.5,1011C 929.807,1012.83 929.474,1014.49 926.5,1016C 927.5,1017 928.5,1018 929.5,1019C 927.069,1020.43 927.069,1021.93 929.5,1023.5C 917.5,1023.5 905.5,1023.5 893.5,1023.5C 894.383,966.725 894.383,909.725 893.5,852.5C 905.243,838.765 916.576,824.765 927.5,810.5 Z"/></g>
<g><path style="opacity:1" fill="#1c1403" d="M 132.5,856.5 C 142.167,865.5 151.5,874.833 160.5,884.5C 160.414,885.496 160.748,886.329 161.5,887C 158.833,888.333 158.833,889.667 161.5,891C 161.5,892.333 161.5,893.667 161.5,895C 158.833,896.333 158.833,897.667 161.5,899C 161.5,900.333 161.5,901.667 161.5,903C 158.833,904.333 158.833,905.667 161.5,907C 161.5,908.333 161.5,909.667 161.5,911C 158.833,912.333 158.833,913.667 161.5,915C 161.5,916.333 161.5,917.667 161.5,919C 158.833,920.333 158.833,921.667 161.5,923C 161.5,924.333 161.5,925.667 161.5,927C 158.833,928.333 158.833,929.667 161.5,931C 161.5,932.333 161.5,933.667 161.5,935C 158.833,936.333 158.833,937.667 161.5,939C 161.5,940.333 161.5,941.667 161.5,943C 158.833,944.333 158.833,945.667 161.5,947C 161.5,948.333 161.5,949.667 161.5,951C 158.833,952.333 158.833,953.667 161.5,955C 161.5,956.333 161.5,957.667 161.5,959C 158.833,960.333 158.833,961.667 161.5,963C 161.5,964.333 161.5,965.667 161.5,967C 158.833,968.333 158.833,969.667 161.5,971C 161.5,972.333 161.5,973.667 161.5,975C 158.833,976.333 158.833,977.667 161.5,979C 161.5,980.333 161.5,981.667 161.5,983C 158.833,984.333 158.833,985.667 161.5,987C 161.5,988.333 161.5,989.667 161.5,991C 158.833,992.333 158.833,993.667 161.5,995C 161.5,996.333 161.5,997.667 161.5,999C 158.833,1000.33 158.833,1001.67 161.5,1003C 161.5,1004.33 161.5,1005.67 161.5,1007C 158.833,1008.33 158.833,1009.67 161.5,1011C 160.167,1014.33 160.167,1017.67 161.5,1021C 160.619,1021.71 159.953,1022.54 159.5,1023.5C 150.167,1023.5 140.833,1023.5 131.5,1023.5C 129.069,1021.93 129.069,1020.43 131.5,1019C 129.606,1017.9 128.939,1016.57 129.5,1015C 130.167,1014.33 130.833,1013.67 131.5,1013C 128.833,1011.67 128.833,1010.33 131.5,1009C 128.833,1007.67 128.833,1006.33 131.5,1005C 128.833,1003.67 128.833,1002.33 131.5,1001C 128.833,999.667 128.833,998.333 131.5,997C 128.833,995.667 128.833,994.333 131.5,993C 128.833,991.667 128.833,990.333 131.5,989C 128.833,987.667 128.833,986.333 131.5,985C 128.833,983.667 128.833,982.333 131.5,981C 128.833,979.667 128.833,978.333 131.5,977C 128.833,975.667 128.833,974.333 131.5,973C 128.833,971.667 128.833,970.333 131.5,969C 128.833,967.667 128.833,966.333 131.5,965C 128.833,963.667 128.833,962.333 131.5,961C 128.833,959.667 128.833,958.333 131.5,957C 128.833,955.667 128.833,954.333 131.5,953C 128.833,951.667 128.833,950.333 131.5,949C 128.833,947.667 128.833,946.333 131.5,945C 128.833,943.667 128.833,942.333 131.5,941C 128.833,939.667 128.833,938.333 131.5,937C 128.833,935.667 128.833,934.333 131.5,933C 128.833,931.667 128.833,930.333 131.5,929C 128.833,927.667 128.833,926.333 131.5,925C 128.833,923.667 128.833,922.333 131.5,921C 128.833,919.667 128.833,918.333 131.5,917C 128.833,915.667 128.833,914.333 131.5,913C 128.833,911.667 128.833,910.333 131.5,909C 128.833,907.667 128.833,906.333 131.5,905C 128.833,903.667 128.833,902.333 131.5,901C 128.833,899.667 128.833,898.333 131.5,897C 128.833,895.667 128.833,894.333 131.5,893C 128.833,891.667 128.833,890.333 131.5,889C 128.833,887.667 128.833,886.333 131.5,885C 128.833,883.667 128.833,882.333 131.5,881C 128.833,879.667 128.833,878.333 131.5,877C 128.833,875.667 128.833,874.333 131.5,873C 128.833,871.667 128.833,870.333 131.5,869C 128.833,867.667 128.833,866.333 131.5,865C 128.833,863.667 128.833,862.333 131.5,861C 129.343,859.915 129.176,858.749 131,857.5C 132.107,858.712 132.607,858.379 132.5,856.5 Z"/></g>
<g><path style="opacity:1" fill="#ab7c12" d="M 893.5,852.5 C 894.383,909.725 894.383,966.725 893.5,1023.5C 884.167,1023.5 874.833,1023.5 865.5,1023.5C 867.931,1021.93 867.931,1020.43 865.5,1019C 868.167,1017 868.167,1015 865.5,1013C 868.167,1011.67 868.167,1010.33 865.5,1009C 868.167,1007.67 868.167,1006.33 865.5,1005C 868.167,1003.67 868.167,1002.33 865.5,1001C 868.167,999.667 868.167,998.333 865.5,997C 868.167,995.667 868.167,994.333 865.5,993C 868.167,991.667 868.167,990.333 865.5,989C 868.167,987.667 868.167,986.333 865.5,985C 868.167,983.667 868.167,982.333 865.5,981C 868.167,979.667 868.167,978.333 865.5,977C 868.167,975.667 868.167,974.333 865.5,973C 868.167,971.667 868.167,970.333 865.5,969C 868.167,967.667 868.167,966.333 865.5,965C 868.167,963.667 868.167,962.333 865.5,961C 868.167,959.667 868.167,958.333 865.5,957C 868.167,955.667 868.167,954.333 865.5,953C 868.167,951.667 868.167,950.333 865.5,949C 868.167,947.667 868.167,946.333 865.5,945C 868.167,943.667 868.167,942.333 865.5,941C 868.167,939.667 868.167,938.333 865.5,937C 868.167,935.667 868.167,934.333 865.5,933C 868.167,931.667 868.167,930.333 865.5,929C 868.167,927.667 868.167,926.333 865.5,925C 868.167,923.667 868.167,922.333 865.5,921C 868.167,919.667 868.167,918.333 865.5,917C 868.167,915.667 868.167,914.333 865.5,913C 868.167,911.667 868.167,910.333 865.5,909C 868.167,907.667 868.167,906.333 865.5,905C 868.167,903.667 868.167,902.333 865.5,901C 868.167,899.667 868.167,898.333 865.5,897C 868.167,895.667 868.167,894.333 865.5,893C 868.167,891.667 868.167,890.333 865.5,889C 868.167,887.667 868.167,886.333 865.5,885C 866.167,884.333 866.833,883.667 867.5,883C 866.748,882.329 866.414,881.496 866.5,880.5C 875.528,871.14 884.528,861.807 893.5,852.5 Z"/></g>
<g><path style="opacity:1" fill="#221903" d="M 160.5,884.5 C 170.23,893.569 180.23,902.236 190.5,910.5C 190.511,912.017 191.177,913.184 192.5,914C 191.931,950.45 191.597,986.95 191.5,1023.5C 180.833,1023.5 170.167,1023.5 159.5,1023.5C 159.953,1022.54 160.619,1021.71 161.5,1021C 160.167,1017.67 160.167,1014.33 161.5,1011C 158.833,1009.67 158.833,1008.33 161.5,1007C 161.5,1005.67 161.5,1004.33 161.5,1003C 158.833,1001.67 158.833,1000.33 161.5,999C 161.5,997.667 161.5,996.333 161.5,995C 158.833,993.667 158.833,992.333 161.5,991C 161.5,989.667 161.5,988.333 161.5,987C 158.833,985.667 158.833,984.333 161.5,983C 161.5,981.667 161.5,980.333 161.5,979C 158.833,977.667 158.833,976.333 161.5,975C 161.5,973.667 161.5,972.333 161.5,971C 158.833,969.667 158.833,968.333 161.5,967C 161.5,965.667 161.5,964.333 161.5,963C 158.833,961.667 158.833,960.333 161.5,959C 161.5,957.667 161.5,956.333 161.5,955C 158.833,953.667 158.833,952.333 161.5,951C 161.5,949.667 161.5,948.333 161.5,947C 158.833,945.667 158.833,944.333 161.5,943C 161.5,941.667 161.5,940.333 161.5,939C 158.833,937.667 158.833,936.333 161.5,935C 161.5,933.667 161.5,932.333 161.5,931C 158.833,929.667 158.833,928.333 161.5,927C 161.5,925.667 161.5,924.333 161.5,923C 158.833,921.667 158.833,920.333 161.5,919C 161.5,917.667 161.5,916.333 161.5,915C 158.833,913.667 158.833,912.333 161.5,911C 161.5,909.667 161.5,908.333 161.5,907C 158.833,905.667 158.833,904.333 161.5,903C 161.5,901.667 161.5,900.333 161.5,899C 158.833,897.667 158.833,896.333 161.5,895C 161.5,893.667 161.5,892.333 161.5,891C 158.833,889.667 158.833,888.333 161.5,887C 160.748,886.329 160.414,885.496 160.5,884.5 Z"/></g>
<g><path style="opacity:1" fill="#281d04" d="M 190.5,910.5 C 200.551,918.552 210.885,926.219 221.5,933.5C 222.166,936.836 222.166,940.003 221.5,943C 224.167,944.333 224.167,945.667 221.5,947C 221.5,948.333 221.5,949.667 221.5,951C 224.167,952.333 224.167,953.667 221.5,955C 221.5,956.333 221.5,957.667 221.5,959C 224.167,960.333 224.167,961.667 221.5,963C 221.5,964.333 221.5,965.667 221.5,967C 224.167,968.333 224.167,969.667 221.5,971C 221.5,972.333 221.5,973.667 221.5,975C 224.167,976.333 224.167,977.667 221.5,979C 221.5,980.333 221.5,981.667 221.5,983C 224.167,984.333 224.167,985.667 221.5,987C 221.5,988.333 221.5,989.667 221.5,991C 224.167,992.333 224.167,993.667 221.5,995C 221.5,996.333 221.5,997.667 221.5,999C 224.167,1000.33 224.167,1001.67 221.5,1003C 221.5,1004.33 221.5,1005.67 221.5,1007C 224.167,1008.33 224.167,1009.67 221.5,1011C 222.833,1014.33 222.833,1017.67 221.5,1021C 222.381,1021.71 223.047,1022.54 223.5,1023.5C 212.833,1023.5 202.167,1023.5 191.5,1023.5C 191.597,986.95 191.931,950.45 192.5,914C 191.177,913.184 190.511,912.017 190.5,910.5 Z"/></g>
<g><path style="opacity:1" fill="#9f7311" d="M 831.5,911.5 C 830.596,948.952 830.596,986.285 831.5,1023.5C 821.5,1023.5 811.5,1023.5 801.5,1023.5C 799.069,1021.93 799.069,1020.43 801.5,1019C 800.833,1018.33 800.167,1017.67 799.5,1017C 798.939,1015.43 799.606,1014.1 801.5,1013C 798.833,1011.67 798.833,1010.33 801.5,1009C 798.833,1007.67 798.833,1006.33 801.5,1005C 798.833,1003.67 798.833,1002.33 801.5,1001C 798.833,999.667 798.833,998.333 801.5,997C 798.833,995.667 798.833,994.333 801.5,993C 798.833,991.667 798.833,990.333 801.5,989C 798.833,987.667 798.833,986.333 801.5,985C 798.833,983.667 798.833,982.333 801.5,981C 798.833,979.667 798.833,978.333 801.5,977C 798.833,975.667 798.833,974.333 801.5,973C 798.833,971.667 798.833,970.333 801.5,969C 798.833,967.667 798.833,966.333 801.5,965C 798.833,963.667 798.833,962.333 801.5,961C 798.833,959.667 798.833,958.333 801.5,957C 798.833,955.667 798.833,954.333 801.5,953C 798.833,951.667 798.833,950.333 801.5,949C 798.833,947.667 798.833,946.333 801.5,945C 798.833,943.667 798.833,942.333 801.5,941C 798.833,939.667 798.833,938.333 801.5,937C 800.748,936.329 800.414,935.496 800.5,934.5C 810.647,926.592 820.98,918.926 831.5,911.5 Z"/></g>
<g><path style="opacity:1" fill="#2e2105" d="M 221.5,933.5 C 232.203,940.513 242.87,947.513 253.5,954.5C 253.5,977.5 253.5,1000.5 253.5,1023.5C 243.5,1023.5 233.5,1023.5 223.5,1023.5C 223.047,1022.54 222.381,1021.71 221.5,1021C 222.833,1017.67 222.833,1014.33 221.5,1011C 224.167,1009.67 224.167,1008.33 221.5,1007C 221.5,1005.67 221.5,1004.33 221.5,1003C 224.167,1001.67 224.167,1000.33 221.5,999C 221.5,997.667 221.5,996.333 221.5,995C 224.167,993.667 224.167,992.333 221.5,991C 221.5,989.667 221.5,988.333 221.5,987C 224.167,985.667 224.167,984.333 221.5,983C 221.5,981.667 221.5,980.333 221.5,979C 224.167,977.667 224.167,976.333 221.5,975C 221.5,973.667 221.5,972.333 221.5,971C 224.167,969.667 224.167,968.333 221.5,967C 221.5,965.667 221.5,964.333 221.5,963C 224.167,961.667 224.167,960.333 221.5,959C 221.5,957.667 221.5,956.333 221.5,955C 224.167,953.667 224.167,952.333 221.5,951C 221.5,949.667 221.5,948.333 221.5,947C 224.167,945.667 224.167,944.333 221.5,943C 222.166,940.003 222.166,936.836 221.5,933.5 Z"/></g>
<g><path style="opacity:1" fill="#996f11" d="M 800.5,934.5 C 800.414,935.496 800.748,936.329 801.5,937C 798.833,938.333 798.833,939.667 801.5,941C 798.833,942.333 798.833,943.667 801.5,945C 798.833,946.333 798.833,947.667 801.5,949C 798.833,950.333 798.833,951.667 801.5,953C 798.833,954.333 798.833,955.667 801.5,957C 798.833,958.333 798.833,959.667 801.5,961C 798.833,962.333 798.833,963.667 801.5,965C 798.833,966.333 798.833,967.667 801.5,969C 798.833,970.333 798.833,971.667 801.5,973C 798.833,974.333 798.833,975.667 801.5,977C 798.833,978.333 798.833,979.667 801.5,981C 798.833,982.333 798.833,983.667 801.5,985C 798.833,986.333 798.833,987.667 801.5,989C 798.833,990.333 798.833,991.667 801.5,993C 798.833,994.333 798.833,995.667 801.5,997C 798.833,998.333 798.833,999.667 801.5,1001C 798.833,1002.33 798.833,1003.67 801.5,1005C 798.833,1006.33 798.833,1007.67 801.5,1009C 798.833,1010.33 798.833,1011.67 801.5,1013C 799.606,1014.1 798.939,1015.43 799.5,1017C 800.167,1017.67 800.833,1018.33 801.5,1019C 799.069,1020.43 799.069,1021.93 801.5,1023.5C 789.5,1023.5 777.5,1023.5 765.5,1023.5C 766.833,1001.17 766.833,978.833 765.5,956.5C 776.99,948.92 788.657,941.586 800.5,934.5 Z"/></g>
<g><path style="opacity:1" fill="#a67812" d="M 866.5,880.5 C 866.414,881.496 866.748,882.329 867.5,883C 866.833,883.667 866.167,884.333 865.5,885C 868.167,886.333 868.167,887.667 865.5,889C 868.167,890.333 868.167,891.667 865.5,893C 868.167,894.333 868.167,895.667 865.5,897C 868.167,898.333 868.167,899.667 865.5,901C 868.167,902.333 868.167,903.667 865.5,905C 868.167,906.333 868.167,907.667 865.5,909C 868.167,910.333 868.167,911.667 865.5,913C 868.167,914.333 868.167,915.667 865.5,917C 868.167,918.333 868.167,919.667 865.5,921C 868.167,922.333 868.167,923.667 865.5,925C 868.167,926.333 868.167,927.667 865.5,929C 868.167,930.333 868.167,931.667 865.5,933C 868.167,934.333 868.167,935.667 865.5,937C 868.167,938.333 868.167,939.667 865.5,941C 868.167,942.333 868.167,943.667 865.5,945C 868.167,946.333 868.167,947.667 865.5,949C 868.167,950.333 868.167,951.667 865.5,953C 868.167,954.333 868.167,955.667 865.5,957C 868.167,958.333 868.167,959.667 865.5,961C 868.167,962.333 868.167,963.667 865.5,965C 868.167,966.333 868.167,967.667 865.5,969C 868.167,970.333 868.167,971.667 865.5,973C 868.167,974.333 868.167,975.667 865.5,977C 868.167,978.333 868.167,979.667 865.5,981C 868.167,982.333 868.167,983.667 865.5,985C 868.167,986.333 868.167,987.667 865.5,989C 868.167,990.333 868.167,991.667 865.5,993C 868.167,994.333 868.167,995.667 865.5,997C 868.167,998.333 868.167,999.667 865.5,1001C 868.167,1002.33 868.167,1003.67 865.5,1005C 868.167,1006.33 868.167,1007.67 865.5,1009C 868.167,1010.33 868.167,1011.67 865.5,1013C 868.167,1015 868.167,1017 865.5,1019C 867.931,1020.43 867.931,1021.93 865.5,1023.5C 854.167,1023.5 842.833,1023.5 831.5,1023.5C 830.596,986.285 830.596,948.952 831.5,911.5C 843.314,901.411 854.981,891.078 866.5,880.5 Z"/></g>
<g><path style="opacity:1" fill="#352605" d="M 253.5,954.5 C 265.15,960.471 276.816,966.471 288.5,972.5C 288.586,973.496 288.252,974.329 287.5,975C 290.167,976.333 290.167,977.667 287.5,979C 290.167,980.333 290.167,981.667 287.5,983C 290.167,984.333 290.167,985.667 287.5,987C 290.167,988.333 290.167,989.667 287.5,991C 290.167,992.333 290.167,993.667 287.5,995C 290.167,996.333 290.167,997.667 287.5,999C 290.167,1000.33 290.167,1001.67 287.5,1003C 290.167,1004.33 290.167,1005.67 287.5,1007C 290.167,1008.33 290.167,1009.67 287.5,1011C 289.807,1012.83 289.474,1014.49 286.5,1016C 289.474,1017.51 289.807,1019.17 287.5,1021C 288.381,1021.71 289.047,1022.54 289.5,1023.5C 277.5,1023.5 265.5,1023.5 253.5,1023.5C 253.5,1000.5 253.5,977.5 253.5,954.5 Z"/></g>
<g><path style="opacity:1" fill="#906910" d="M 765.5,956.5 C 766.833,978.833 766.833,1001.17 765.5,1023.5C 744.833,1023.5 724.167,1023.5 703.5,1023.5C 703.5,1011.17 703.5,998.833 703.5,986.5C 724.372,977.065 745.039,967.065 765.5,956.5 Z"/></g>
<g><path style="opacity:1" fill="#3b2a06" d="M 288.5,972.5 C 299.079,977.36 309.746,982.027 320.5,986.5C 319.741,998.946 319.407,1011.28 319.5,1023.5C 309.5,1023.5 299.5,1023.5 289.5,1023.5C 289.047,1022.54 288.381,1021.71 287.5,1021C 289.807,1019.17 289.474,1017.51 286.5,1016C 289.474,1014.49 289.807,1012.83 287.5,1011C 290.167,1009.67 290.167,1008.33 287.5,1007C 290.167,1005.67 290.167,1004.33 287.5,1003C 290.167,1001.67 290.167,1000.33 287.5,999C 290.167,997.667 290.167,996.333 287.5,995C 290.167,993.667 290.167,992.333 287.5,991C 290.167,989.667 290.167,988.333 287.5,987C 290.167,985.667 290.167,984.333 287.5,983C 290.167,981.667 290.167,980.333 287.5,979C 290.167,977.667 290.167,976.333 287.5,975C 288.252,974.329 288.586,973.496 288.5,972.5 Z"/></g>
<g><path style="opacity:1" fill="#433107" d="M 320.5,986.5 C 340.064,994.393 360.064,1001.06 380.5,1006.5C 380.414,1007.5 380.748,1008.33 381.5,1009C 379.193,1010.83 379.526,1012.49 382.5,1014C 381.5,1015 380.5,1016 379.5,1017C 382.533,1018.83 383.199,1021 381.5,1023.5C 360.833,1023.5 340.167,1023.5 319.5,1023.5C 319.407,1011.28 319.741,998.946 320.5,986.5 Z"/></g>
<g><path style="opacity:1" fill="#85600f" d="M 703.5,986.5 C 703.5,998.833 703.5,1011.17 703.5,1023.5C 681.5,1023.5 659.5,1023.5 637.5,1023.5C 637.595,1018.94 637.928,1014.44 638.5,1010C 637.756,1008.96 636.756,1008.46 635.5,1008.5C 658.402,1002.2 681.069,994.867 703.5,986.5 Z"/></g>
<g><path style="opacity:1" fill="#513a09" d="M 380.5,1006.5 C 414.466,1015.11 448.799,1020.77 483.5,1023.5C 449.5,1023.5 415.5,1023.5 381.5,1023.5C 383.199,1021 382.533,1018.83 379.5,1017C 380.5,1016 381.5,1015 382.5,1014C 379.526,1012.49 379.193,1010.83 381.5,1009C 380.748,1008.33 380.414,1007.5 380.5,1006.5 Z"/></g>
<g><path style="opacity:1" fill="#79580e" d="M 635.5,1008.5 C 636.756,1008.46 637.756,1008.96 638.5,1010C 637.928,1014.44 637.595,1018.94 637.5,1023.5C 599.167,1023.5 560.833,1023.5 522.5,1023.5C 560.497,1022.04 598.163,1017.04 635.5,1008.5 Z"/></g>
</svg>
